<?xml version="1.0" encoding="utf-8"?>
<!-- Generator: Adobe Illustrator 15.0.2, SVG Export Plug-In  -->
<!DOCTYPE svg PUBLIC "-//W3C//DTD SVG 1.1//EN" "http://www.w3.org/Graphics/SVG/1.1/DTD/svg11.dtd" [
	<!ENTITY ns_flows "http://ns.adobe.com/Flows/1.0/">
]>
<svg version="1.1"
	 xmlns="http://www.w3.org/2000/svg" xmlns:xlink="http://www.w3.org/1999/xlink" xmlns:a="http://ns.adobe.com/AdobeSVGViewerExtensions/3.0/"
	 x="0px" y="0px" width="218px" height="239px" viewBox="-0.736 0 218 239"
	 overflow="visible" enable-background="new -0.736 0 218 239" xml:space="preserve">
<defs>
</defs>
<path fill="#FFFFFF" d="M43.939,216.887c-1.427-1.934-3.898-3.723-4.419-6.166c-0.292-1.369,0.036-3.278,0.036-4.695
	c0-1.756-0.232-3.712-0.016-5.448c0.186-1.493,0.768-2.227,0.745-3.863c-0.021-1.551,0.002-3.102,0.002-4.652
	c0-3.713-0.499-7.82-0.017-11.486c0.22-1.678,0.604-2.974,0.707-4.747c0.119-2.051,0.604-4.408,0.938-6.44
	c0.354-2.167,1.438-4.065,2.201-6.05c0.654-1.702,1.983-2.968,2.582-4.618c1.079-2.971,2.987-5.587,4.361-8.55
	c0.338-0.729,0.785-1.439,1.109-2.158c0.296-0.659,0.286-0.991,0.514-1.706c0.524-1.642,1.304-3.277,2.209-4.67
	c3.343-5.142,2.956-11.404,2.922-17.847c-0.02-3.665,2.071-6.32,2.774-9.917c0.362-1.843,0.601-3.76,0.914-5.617
	c0.123-0.723-0.088-1.575-0.056-2.31c0.056-1.202,0.511-1.957,0.769-3.104c0.691-3.057,0.871-6.257,1.604-9.311
	c0.295-1.236,1.175-3.347,0.618-4.71c-0.545-1.338-3.124-0.72-4.433-0.72c-3.089,0-5.706,0.782-8.764,0.776
	c-2.819-0.007-6.834,0.808-9.531,0.036c-2.128-0.608-4.599-3.578-5.858-5.312c-1.354-1.861-2.168-3.674-2.134-6.194
	c0.073-5.593-2.703-10.762-1.301-16.46c0.313-1.271,0.481-2.421,0.729-3.706c0.356-0.185,0.558-0.486,0.606-0.908
	c0.167-0.749-0.195-1.608-0.076-2.368c0.35-2.221,1.468-5.017,2.392-6.982c1.184-2.521,3.056-5.208,4.911-7.152
	c0.931-0.974,2.073-1.953,3.138-2.761c0.326-0.246,1.161-0.771,1.444-0.948c0.686-0.431,0.978-0.94,1.924-0.908
	c0.14-1.594,0.762-2.942,0.852-4.522c0.1-1.737-0.353-2.406-0.768-3.838c-0.896-3.102-1.833-6.898-2.17-10.127
	c-0.144-1.369-1.329-3.337-0.601-4.692c0.601-1.114,2.403-1.947,3.559-1.549c2.39,0.823,3.156,4.206,4.525,6.089
	c1.66,2.282,3.305,5.298,6.408,4.82c1.796-0.276,2.072-1.129,2.188-3.112c0.048-0.797-0.027-1.411-0.178-2.158
	c-0.354-0.185-0.557-0.487-0.607-0.907c0.027-0.545,0.055-1.091,0.081-1.637c-0.152-0.703-0.648-0.766-0.808-1.469
	c-0.152-0.661,0.037-1.679,0.037-2.366c0-1.949,0.199-2.885,0.934-4.653c0.356-0.855,0.871-3.506,1.987-3.784
	c1.065-0.265,2.33,2.18,2.738,2.988c0.685,1.357,1.437,3.157,1.682,4.673c0.24,1.493-0.39,3.221-0.076,4.694
	c0.196,0.922,1.032,2.236,1.501,3.062c0.861,1.51,1.425,1.792,2.902,2.505c2.562,1.236,5.317,3.172,7.499,5.043
	c1.246,1.069,2.013,2.301,3.068,3.511c1.422,1.624,3.385,2.733,4.947,4.222c1.215,1.16,2.425,1.821,3.652,2.914
	c1.316,1.172,3.603,3.358,4.108,5.125c0.398,1.39,0.101,3.162,0.11,4.613c0.01,1.908-0.525,2.938-0.747,4.637
	c-0.501,3.819,2.37,4.478,5.11,5.642c2.792,1.184,5.655,1.987,8.217,3.473c5.899,3.421,12.743,5.456,17.218,11.097
	c2.331,2.939,4.342,5.646,7.283,7.948c1.509,1.181,2.27,2.312,3.248,4.017c1.533,2.669,3.391,4.944,4.924,7.558
	c1.622,2.765,2.879,5.58,4.589,8.212c0.843,1.296,1.914,2.075,2.716,3.431c1.19,2.011,2.062,3.952,2.94,6.092
	c1.15,2.8,2.296,5.518,3.106,8.51c0.857,3.165,2.395,5.903,2.755,9.254c0.11,1.02-0.26,2.186-0.054,3.183
	c0.172,0.84,0.663,1.438,0.806,2.288c0.24,1.434-0.061,3.188-0.042,4.655c0.025,1.733-0.644,2.986-0.743,4.657
	c-0.12,1.991-0.446,3.551-0.73,5.406c-0.312,2.04,0.315,4.265,0.034,6.309c-0.203,1.486-0.506,3.114-0.891,4.574
	c-0.769,2.918-3.549,5.274-4.807,7.932c-1.21,2.561-1.901,4.954-2.9,7.606c-0.493,1.307-0.659,2.386-1.075,3.685
	c-0.36,1.129-1.542,2.312-1.864,3.453c-0.567,2.017-0.703,6.963-0.019,8.961c0.179,0.522,0.92,1.088,1.152,1.707
	c0.307,0.819,0.286,1.578,0.692,2.385c0.709,1.406,2.079,2.502,3.264,3.429c1.42,1.108,3.292,2.866,5.01,3.379
	c1.56,0.465,3.494,0.123,5.109,0.135c3.123,0.025,5.724-1.812,7.958-4.055c2.675-2.688,6.147-4.516,7.195-8.53
	c1.157-4.444-0.353-9.799,0.106-14.354c0.47-4.646,1.378-9.312,1.479-13.967c0.054-2.518,0.784-4.757,0.751-7.333
	c-0.051-3.624,0.751-6.995,0.726-10.572c-0.012-1.851,0.073-3.712,0.021-5.561c-0.062-2.226-0.766-4.09-0.745-6.368
	c0.043-4.603-0.876-10.353,0.53-14.756c1.599-5.004,3.822-9.643,5.491-14.583c2.143-6.345,4.83-12.482,6.649-18.969
	c0.423-1.512,0.768-2.735,1.383-4.118c0.14-0.31,0.532-1.521,0.678-1.744c0.607-0.936,1.365-1.092,2.069-1.858
	c0.973-1.062,1.646-2.866,2.59-4.04c0.568-0.708,1.168-1.316,1.701-1.947c2.458-2.905,3.44-6.453,5.967-9.31
	c2.824-3.196,5.916,0.862,7.971,3.022c2.788,2.932,4.438,4.688,4.403,9.271c-0.02,2.571,0.572,4.686,0.769,7.17
	c0.159,2.031-0.036,4.182-0.038,6.229c-0.003,1.712,0.13,3.078-0.532,4.655c-0.872,2.071-2.016,4.001-2.954,6.034
	c-1.495,3.245-1.829,6.738-2.889,10.065c-0.996,3.128-2.552,5.971-3.725,9.024c-0.461,1.201-0.986,2.468-1.396,3.703
	c-0.598,1.796-0.531,3.578-0.898,5.346c-0.396,1.892-0.847,3.713-1.305,5.574c-0.318,1.288-0.498,2.298-0.905,3.594
	c-0.653,2.079-0.419,3.759-0.709,5.787c-0.381,2.655-0.659,5.389-1.284,7.962c-0.924,3.812-1.186,7.635-1.639,11.457
	c-0.138,1.147-0.654,1.708-0.79,2.742c-0.174,1.33,0.018,2.885,0.035,4.229c0.038,2.868-0.637,5.607-0.745,8.459
	c-0.113,2.983,0.449,5.506,0.786,8.358c0.109,0.934-0.095,1.96-0.055,2.898c0.06,1.472,0.604,2.633,0.785,4.07
	c0.437,3.459-0.038,7.351-0.038,10.861c0,3.62,0,7.239,0,10.858c0,3.193,0.447,6.836-0.162,9.916
	c-0.087,0.44-0.467,1.092-0.571,1.706c-0.202,1.203,0.021,1.243-0.692,2.347c-0.557,0.86-1.213,1.369-1.694,2.327
	c-0.614,1.213-0.97,2.201-1.992,3.141c-1.182,1.083-2.486,1.954-3.657,3.065c-1.52,1.444-3.258,2.034-4.922,3.294
	c-3.111,2.35-7.049,2.308-10.564,3.883c-3.878,1.736-7.487,1.585-11.525,0.754c-1.863-0.383-3.848,0.211-5.683-0.327
	c-1.82-0.534-3.449-1.765-5.275-2.363c-2.414-0.792-4.788-2.172-7.305-2.135c-3.027,0.047-6.07-0.274-8.742,0.752
	c-3.888,1.491-7.519,1.573-11.702,1.573c-4.133,0-7.849,0.032-11.685-1.551c-1.637-0.676-3.397-1.135-5.097-1.574
	c-2.117-0.549-4.517-0.321-6.594-0.926c-2.724-0.796-5.613-0.224-8.397-1.15c-2.955-0.979-5.626-2.645-8.431-3.956
	c-1.557-0.729-3.468-1.096-5.073-1.531c-0.972-0.263-1.918-0.196-2.92-0.176c-1.086,0.023-1.566-0.428-2.355-0.6
	c-1.815-0.396-3.8-0.976-5.681-0.946c-0.935,0.014-2.016,0.144-2.938,0.016c-1.004-0.141-1.25-0.62-2.134-0.838
	c-0.649-0.159-1.394,0.019-2.067-0.129c-0.761-0.167-1.337-0.535-2.356-0.582c-1.142-0.053-1.834-0.634-2.918-0.837
	c-0.939-0.177-1.98,0.245-2.923,0.077c-1.924-0.342-3.696-1.944-5.29-2.968c-1.352-0.868-2.829-0.978-4.204-1.725"/>
<path fill="#FFFFFF" d="M60.005,34.305c-1.211-1.377-1.484-2.863-1.458-4.655c0.012-0.734,0.104-1.62,0.015-2.345
	c-0.134-1.074-0.57-1.322-0.785-2.271c-0.151-0.666,0.04-1.675,0.034-2.37c-0.012-1.408-0.316-2.334-0.564-3.703
	c-0.165-0.915-0.07-1.6-0.143-2.498c-0.096-1.181-0.599-1.967-0.788-3.105c-0.236-1.429,0.045-3.193,0.038-4.655
	c-0.01-1.907,0.554-2.938,0.75-4.633c0.175-1.507,0.054-2.876,1.586-3.745c1.641-0.931,3.267,0.329,4.233,1.399
	c0.555,0.609,0.762,0.629,1.277,1.573c0.3,0.551,0.624,1.003,0.914,1.527c0.777,1.407,0.904,3.035,1.301,4.637
	c0.503,2.025-0.1,4.181,0.146,6.242c0.184,1.562,0.837,2.394,1.661,3.648c1.854,2.827,2.707,6.202,3.447,9.521
	c0.803,3.604,3.015,7.112,2.941,10.862"/>
<g>
	<g>
		<path fill="#FFFFFF" d="M3.581,97.199c3.243-2.995,7.328-5.728,10.998-8.174c2.483-1.656,6.134-3.164,7.294-6.058
			c0.995-2.482-3.015-3.55-3.996-1.102c-0.137,0.343-2.48,1.641-3.107,2.059c-1.902,1.268-3.805,2.537-5.708,3.805
			c-2.844,1.896-5.881,4.203-8.411,6.539C-1.316,96.085,1.622,99.008,3.581,97.199L3.581,97.199z"/>
	</g>
</g>
<g>
	<g>
		<path fill="#FFFFFF" d="M7.602,108.179c3.689-2.349,6.686-5.435,9.669-8.601c2.633-2.794,5.98-4.716,7.943-8.126
			c1.336-2.32-2.246-4.406-3.578-2.092c-1.603,2.783-4.368,4.227-6.528,6.477c-3.021,3.147-5.887,6.401-9.598,8.764
			C3.264,106.031,5.34,109.619,7.602,108.179L7.602,108.179z"/>
	</g>
</g>
<g>
	<g>
		<path fill="#FFFFFF" d="M13.817,115.282c3.134-1.342,5.222-4.143,7.522-6.539c3.204-3.336,6.893-6.108,9.767-9.767
			c1.631-2.076-1.28-5.03-2.93-2.93c-2.354,2.996-5.212,5.473-7.996,8.056c-2.71,2.516-4.985,6.116-8.456,7.601
			C9.275,112.752,11.389,116.321,13.817,115.282L13.817,115.282z"/>
	</g>
</g>
<g>
	<g>
		<path fill="#FFFFFF" d="M95.348,29.437c2.965-0.197,5.055-1.608,7.146-3.627c0.94-0.908,2.561-1.42,3.663-2.185
			c1.188-0.824,2.289-1.752,3.554-2.461c2.33-1.307,0.242-4.887-2.092-3.578c-1.984,1.112-3.68,2.662-5.655,3.8
			c-1.193,0.688-1.926,1.036-2.939,2.014c-1.054,1.018-2.178,1.794-3.677,1.894C92.696,25.469,92.679,29.614,95.348,29.437
			L95.348,29.437z"/>
	</g>
</g>
<g>
	<g>
		<path fill="#FFFFFF" d="M103.352,36.402c0.917-1.58,2.567-2.584,4.123-3.457c2.16-1.211,3.568-3.451,5.788-4.68
			c2.337-1.295,0.248-4.874-2.092-3.578c-2.373,1.314-3.962,3.657-6.276,4.954c-2.002,1.122-3.957,2.664-5.121,4.669
			C98.43,36.626,102.011,38.711,103.352,36.402L103.352,36.402z"/>
	</g>
</g>
<g>
	<g>
		<path fill="#FFFFFF" d="M107.936,42.472c5.685-2.853,9.368-7.406,13.738-11.867c1.871-1.909-1.058-4.841-2.93-2.93
			c-4.122,4.207-7.532,8.524-12.9,11.219C103.456,40.093,105.555,43.667,107.936,42.472L107.936,42.472z"/>
	</g>
</g>
</svg>
