<?xml version="1.0" encoding="utf-8"?>
<!-- Generator: Adobe Illustrator 15.0.2, SVG Export Plug-In  -->
<!DOCTYPE svg PUBLIC "-//W3C//DTD SVG 1.1//EN" "http://www.w3.org/Graphics/SVG/1.1/DTD/svg11.dtd" [
	<!ENTITY ns_flows "http://ns.adobe.com/Flows/1.0/">
]>
<svg version="1.1"
	 xmlns="http://www.w3.org/2000/svg" xmlns:xlink="http://www.w3.org/1999/xlink" xmlns:a="http://ns.adobe.com/AdobeSVGViewerExtensions/3.0/"
	 x="0px" y="0px" width="256px" height="410px" viewBox="0 0 256 410" overflow="visible" enable-background="new 0 0 256 410"
	 xml:space="preserve">
<defs>
</defs>
<path fill="#32B559" d="M23.312,400.196c0.379-0.668,0.91-0.945,1.594-0.828c0.996,2.139,3.322,5.164,5.33,6.455
	c1.742,1.121,3.568,3.113,5.607,3.361c2.887,0.35,6.072-0.021,8.986-0.021c1.399,0,3.115,0.287,4.482,0.047
	c1.666-0.293,2.73-0.848,4.483-0.92c1.633-0.066,2.853-0.852,4.483-0.941c1.184-0.062,3.495,0.543,4.547,0.086
	c1.662-0.723,0.434-2.213,0.785-3.697c0.34-1.432,0.965-1.799,0.94-3.543c-0.046-3.285,0.003-6.574,0.003-9.859
	c0-1.852,0.015-3.703,0.004-5.553c-0.016-2.559,0.531-4.283,0.939-6.705c0.301-1.793-0.201-3.76-0.093-5.578
	c0.173-2.908,0.739-6.078,1.14-8.982c0.816-5.949,0.699-11.803,0.699-17.814c0-4.041-0.597-8.564-0.046-12.553
	c0.308-2.225,0.682-4.279,0.919-6.516c0.164-1.543,1.076-2.889,0.959-4.457c-0.185-2.453-0.736-1.385-2.734-1.727
	c-1.746-0.297-3.639-0.746-5.398-1.141c-4.292-0.965-8.804-1.518-13.203-2.498c-2.772-0.617-5.492-1.43-8.316-1.789
	c-3.135-0.4-6.094-1.662-9.277-1.836c-1.722-0.096-4.328-0.365-5.984-0.004c-1.521,0.332-2.718,0.896-4.283,1.094
	c-0.051,0.248-0.102,0.498-0.152,0.746"/>
<path fill="#32B559" d="M138.073,407.37c0.725,3.475,13.148,1.797,16.139,1.793c3.436-0.004,6.432-0.914,9.859-0.896
	c3.203,0.018,5.92-0.514,8.99-0.873c1.435-0.168,2.106-0.777,3.541-0.943c1.822-0.213,2.689,0.449,3.428-1.707
	c1.045-3.045,0.183-7.576,0.183-10.822c0-1.398-0.287-3.115-0.047-4.482c0.293-1.666,0.847-2.729,0.919-4.482
	c0.067-1.633,0.854-2.854,0.941-4.484c0.08-1.479-0.021-2.998-0.021-4.482c0-1.482-0.101-3.004-0.021-4.482
	c0.088-1.629,0.85-2.855,0.938-4.482c0.17-3.145,0.337-5.943,0.826-8.967c0.273-1.682,0.974-2.68,0.943-4.482
	c-0.02-1.191-0.413-3.246,0.186-4.305c0.773-1.365,2.947-1.93,4.15-2.668c1.299-0.797,2.419-1.904,3.74-2.689
	c0.588-0.318,1.191-0.602,1.811-0.852c1.222-0.715,1.09-1.15,1.975-2.064c1.18-1.217,3.135-2.42,4.55-3.41
	c0.419-0.1,0.837-0.201,1.254-0.303c1.038-0.727,1.896-1.807,2.936-2.561c1.409-1.021,2.882-1.916,4.258-2.889
	c4.642-3.281,9.352-6.354,14.409-8.654c0.785,1.729-0.475,2.785-0.758,4.395c-0.24,1.365,0.043,3.084,0.047,4.482
	c0.007,3.338-0.917,5.648-0.896,8.988c0.043,7.166,0,14.332,0,21.496c0,7.17-0.096,14.348-0.004,21.518
	c0.023,1.803-0.643,2.797-0.939,4.482c-0.24,1.367,0.046,3.082,0.046,4.482c0,1.492,0.024,2.988,0.003,4.48
	c-0.025,1.824,1.006,2.701,1.047,4.332c1.689,0.205,2.703,0.859,4.309,1.07c1.719,0.229,3.662-0.02,5.4-0.02
	c3.886,0,7.771,0,11.656,0c1.738,0,3.682,0.246,5.4,0.02c0.828-0.107,1.395-0.602,1.971-0.717c0.652-0.133,2.033,0.092,2.559-0.133
	c1.471-0.633,0.842-3.055,0.829-4.549c-0.021-2.32,0.798-4.076,0.917-6.277c0.916-16.904-0.021-34.143-0.021-51.074
	c0-5.098,0-10.195,0-15.293c0-2.039,0.001-4.076,0-6.113c-0.001-1.859,0.142-3.768,0.021-5.619
	c-0.119-1.828-0.829-3.533-0.963-5.354c-0.562-7.635,0.049-15.576,0.046-23.24c-0.001-1.771,0.233-3.668-0.199-5.379
	c-0.393-1.553-1.301-3.004-1.641-4.438c-0.872-3.686-0.004-8.791,0.044-12.596c0.022-1.854-0.604-2.744-0.914-4.42
	c-0.415-2.238,0.02-4.969,0.02-7.258c0-3.857,0-7.713,0-11.568c0-19.537,0-39.076,0-58.614c0-5.947,0-11.896,0-17.843
	c0-3.506,0.397-7.206-0.199-10.655c-1.018-5.891-0.697-11.816-0.697-17.805c0-3.967,0.125-7.952,0.021-11.917
	c-0.074-2.801-0.943-5.269-0.914-8.081c0.026-2.607-0.182-4.695-0.701-7.174c-0.569-2.719-0.199-5.762-0.199-8.539
	c0-1.922,0.076-3.861,0.021-5.781c-0.065-2.275-0.943-3.984-0.914-6.279c0.068-5.527-0.004-11.062-0.004-16.59
	c0-12.115,0-24.23,0-36.346c0-9.484-0.018-18.967,0-28.451c0.003-1.502,0.651-3.92-0.836-4.547
	c-1.459-0.615-4.684,0.064-6.295,0.064c-5.597,0-11.76-0.684-17.076,0.697c-2.06,0.533-4.285-0.298-6.322,0.152
	c-0.959,0.213-1.637,0.788-2.598,0.992c-1.205,0.258-2.421-0.172-3.679,0.15c-0.37,0.096-2.473,0.529-2.708,0.654
	c-1.146,0.605-0.686,0.488-0.853,1.818c-0.271,2.152-0.601,4.115-1.073,6.247c-1.014,4.583-1.643,8.907-1.6,13.719
	c0.022,2.47-0.771,4.522-0.914,6.924c-0.162,2.744,0.021,5.566,0.021,8.318c0,2.245,0.297,4.7,0.046,6.923
	c-0.253,2.231-0.958,3.999-0.943,6.303c0.028,4.54,0,9.082,0,13.622c0,4.964,0,9.929,0,14.893c0,2.456,0.011,4.913,0,7.369
	c-0.013,3.107,0.774,5.897,0.917,8.949c0.332,7.048-0.917,13.835-0.917,20.868c0,6.708,0,13.416,0,20.124
	c0,10.841,0,21.683,0,32.522c0,4.791,0,9.581,0,14.371c0,2.143,0.001,4.283,0,6.426c-0.001,1.355,0.071,2.733,0.021,4.086
	c-0.071,1.937-0.732,3.49-0.963,5.382c-0.613,5.031,0.046,10.57,0.046,15.662c0,5.318,0,10.639,0,15.959
	c0,5.799-1.06,12.758,0.199,18.408c0.347,1.555,0.659,2.396,0.694,3.986c0.025,1.127-0.24,2.484-0.043,3.586
	c0.254,1.426,0.877,2.283,0.963,3.785c0.086,1.469-0.006,3.004-0.018,4.48c-0.014,1.816,0.26,2.652,0.695,4.283
	c0.332,1.248,0.021,2.357,0.178,3.609c0.197,1.576,2.049,4.416,0.782,6.1c-0.252,0.336-2.96,1.016-3.451,1.1
	c-1.154,0.197-2.433-0.293-3.586-0.094c-2.373,0.41-4.83,1.486-7.177,2.039c-2.87,0.678-5.306,2.473-8.086,3.41
	c-1.901,0.641-3.976,1.303-6.056,1.99c-4.302,1.422-9.2,3.412-13.651,4.463c-2.895,0.682-5.393,2.463-8.087,3.656
	c-2.634,1.166-5.4,1.955-8.046,3.07c-1.285,0.543-2.327,1.209-3.39,2.039c-1.043,0.816-1.704,1.156-2.936,1.793
	c-1.148,0.596-3.268,2.201-3.54,3.586"/>
<path fill="#F5E253" d="M0,407.37c0-3.57,0-7.141,0-10.713c0-2.174,0.021-4.348,0.003-6.521c-0.02-2.531,0.803-4.457,0.891-6.928
	c0.307-8.648,0.003-17.369,0.003-26.025c0-16.371,0-32.742,0-49.113c0-3.957,0.055-7.918,0.003-11.875
	c-0.025-2.004,0.811-3.449,0.914-5.379c0.113-2.072-0.017-4.201-0.02-6.277c-0.004-1.523-0.643-3.887,0.832-4.547
	c1.643-0.734,3.193,0.586,4.5,0.986c3.49,1.072,7.635,0.336,10.832,1.742c1.653,0.727,2.466,0.961,4.453,0.926
	c2.102-0.039,3.085,0.838,5.162,0.914c0.896,0.033,2.043-0.209,2.928-0.043c0.699,0.133,1.477,0.611,1.976,0.719
	c0.882,0.189,1.558,0.223,2.49,0.199c1.347-0.033,1.907,0.486,2.889,0.697c3.453,0.74,7.181,0.268,10.606,1.047
	c0.816,0.186,0.885,0.799,1.7,0.992c0.881,0.209,1.901-0.301,2.782-0.092c0.814,0.191,0.887,0.797,1.701,0.988
	c1.086,0.258,2.315-0.082,3.434,0.154c0.611,0.129,1.097,0.613,1.968,0.721c0.888,0.107,1.636-0.004,2.515,0.176
	c0.447,0.092,1.343,0.57,1.972,0.697c0.952,0.191,1.772,0.457,2.71,0.695c0.977,0.25,1.741-0.002,2.689,0.15
	c1.001,0.162,1.689,0.834,2.69,0.996c2.185,0.354,4.257,0.584,6.476,0.797c2.075,0.201,4.119,1.145,6.076,1.643
	c1.723,0.441,3.6,0.172,5.38,0.203c2.431,0.045,3.998,1.016,6.322,1.615c2.071,0.533,4.12,0.662,6.184,1.021
	c2.173,0.381,4.261,1.113,6.322,1.645c1.827,0.471,3.72,0.041,5.582,0.398c5.031,0.965,10.093,2.053,15.014,3.188
	c2.011,0.463,4.233,0.213,6.302,0.199c0.792-0.004,1.976-0.229,2.736-0.045c0.812,0.195,0.889,0.793,1.7,0.988
	c1.681,0.406,3.718-0.305,5.443-0.064c1.228,0.174,1.321-0.344,1.84,0.852c0.333,0.766-0.062,2.773-0.063,3.648
	c-0.008,3.566,0.213,7.201,0.02,10.76c-0.104,1.93-0.939,3.377-0.914,5.379c0.026,2.018,0.28,4.303,0.018,6.297
	c-0.226,1.719-0.938,2.564-0.914,4.445c0.027,2.088-0.003,4.18-0.003,6.27c0,2.314,0.182,4.709,0.021,7.016
	c-0.086,1.236-0.549,1.318-0.718,2.125c-0.307,1.459-0.172,2.861-0.202,4.352c-0.045,2.182-0.84,3.859-0.914,6.037
	c-0.074,2.15-0.015,4.338,0.018,6.492c0.029,2.006-0.811,3.451-0.914,5.383c-0.113,2.072,0.02,4.199,0.02,6.275
	c0,3.588,0,7.174,0,10.76c0,3.525,0.867,8.301,0.047,11.701c-0.196,0.812-0.793,0.889-0.989,1.701
	c-0.183,0.758,0.038,1.947,0.046,2.736c0.025,2.369,0.66,3.48-1.975,3.604c-3.809,0.178-7.659-0.076-11.474-0.021
	c-2.003,0.029-3.448-0.809-5.38-0.912c-1.775-0.098-3.599,0.02-5.379,0.02c-3.758,0-7.96,0.539-11.674,0.018
	c-2.402-0.336-1.786-1.283-1.775-3.604c0.009-1.777,0-3.557,0-5.334c0-4.871-0.896-9.109-0.896-13.998
	c0-2.582,0.28-5.279-0.199-7.807c-0.41-2.158-0.694-3.801-0.697-6.035c-0.002-2.107-0.018-4.215,0-6.322
	c0.025-2.855-0.869-5.246-0.917-8.141c-0.059-3.543,0.013-7.098,0.021-10.641c0.004-1.551,0.485-3.557-0.63-4.75
	c-0.886-0.951-2.657-1.285-3.832-1.75c-3.55-1.408-7.155-2.66-10.78-3.559c-0.926-0.23-1.767-0.51-2.71-0.701
	c-0.615-0.125-1.538-0.611-1.972-0.697c-1.993-0.398-3.841-1.057-5.836-1.119c-2.319-0.072-4.273-0.652-6.514-0.895
	c-2.105-0.227-4.248,0.379-6.326-0.178c-1.062-0.287-1.481-0.66-2.643-0.719c-0.838-0.041-1.927,0.264-2.736,0.066
	c-0.812-0.195-0.887-0.797-1.701-0.988c-1.182-0.277-2.403,0.168-3.632-0.152c-1.069-0.279-1.527-0.662-2.69-0.719
	c-0.836-0.041-1.927,0.264-2.735,0.066c-0.812-0.195-0.889-0.793-1.7-0.988c-0.762-0.184-1.943,0.041-2.736,0.047
	c-3.185,0.018-8.715,1.051-11.521-0.562c-0.771,2.709,0.779,4.822,0.759,7.539c-0.029,3.635,0.029,7.271,0.006,10.908
	c-0.016,2.504,0.467,4.178,0.939,6.494c0.387,1.896-0.039,4.367-0.047,6.324c-0.015,4.137,0.895,7.947,0.896,12.129
	c0.008,12.023,0,24.045,0,36.066"/>
<path fill="#F5E253" d="M205.317,280.952c-1.678-2.236-5.539-3.029-8.023-4.236c-3.308-1.609-6.621-2.85-10.081-4.033
	c-5.872-2.008-10.636-6.58-16.729-7.105c-0.734-2.859-0.699-8.754,0.066-11.568c1.076-3.955,0.697-8.287,0.697-12.488
	c0-4.473,0-8.945,0-13.418c0-2.34,0-4.682,0-7.021c0-2.533,0.647-5.982,0.047-8.365c-0.563-2.229-0.9-3.811-0.947-6.201
	c-0.038-1.964-0.798-3.437-0.914-5.337c-0.135-2.22,0.194-4.476,0.067-6.692c-0.153-2.68-0.949-4.93-0.942-7.674
	c0.018-8.067,0-16.137,0-24.205c0-16.729,0-33.458,0-50.188c0-10.263,0-20.525,0-30.788c0-9.38-0.674-19.059-0.021-28.413
	c0.152-2.17,0.94-4.01,0.914-6.272c-0.023-2.091,0.004-4.183,0.004-6.272c0-3.588,0-7.176,0-10.763c0-3.586,0-7.173,0-10.759
	c0-1.781-0.117-3.604-0.021-5.38c0.105-1.931,0.94-3.376,0.914-5.38c-0.022-1.771-0.201-3.662,0.206-5.376
	c0.581-2.446,0.981-2.732,3.39-2.689c0.965,0.017,1.941-0.06,2.904-0.024c1.273,0.047,1.797,0.561,2.643,0.719
	c1.168,0.216,2.262,0,3.42,0.149c1.336,0.174,2.471,0.839,3.825,0.993c3.97,0.451,8.296-0.047,12.307-0.047
	c1.68,0,3.585-0.273,5.177,0.202c1.212,0.362,2.189,1.651,3.615,1.765c0.059,0.241,0.115,0.481,0.174,0.723"/>
<path fill="#F5E253" d="M105.799,250.145c-1.677-1.967-5.538-2.664-8.022-3.727c-3.309-1.414-6.621-2.504-10.082-3.545
	c-5.872-1.766-10.635-5.787-16.729-6.248c-0.733-2.514-0.698-7.697,0.067-10.172c1.076-3.479,0.697-7.287,0.697-10.98
	c0-3.932,0-7.863,0-11.796c0-2.058,0-4.116,0-6.175c0-2.228,0.646-5.26,0.046-7.354c-0.563-1.96-0.899-3.351-0.946-5.452
	c-0.038-1.728-0.799-3.022-0.914-4.693c-0.135-1.952,0.193-3.936,0.066-5.885c-0.152-2.355-0.949-4.334-0.942-6.746
	c0.019-7.094,0-14.188,0-21.283c0-14.709,0-29.418,0-44.127c0-9.023,0-18.047,0-27.07c0-8.248-0.673-16.758-0.021-24.983
	c0.151-1.907,0.939-3.525,0.914-5.515c-0.024-1.839,0.003-3.678,0.003-5.516c0-3.154,0-6.309,0-9.464c0-3.152,0-6.306,0-9.459
	c0-1.565-0.117-3.169-0.021-4.73c0.104-1.697,0.939-2.969,0.914-4.729c-0.023-1.559-0.201-3.221,0.205-4.727
	c0.582-2.151,0.982-2.403,3.391-2.365c0.965,0.015,1.941-0.053,2.904-0.021c1.273,0.041,1.797,0.492,2.643,0.632
	c1.168,0.19,2.262-0.001,3.419,0.132c1.336,0.152,2.471,0.736,3.825,0.872c3.971,0.397,8.296-0.041,12.307-0.041
	c1.68,0,3.586-0.239,5.178,0.179c1.211,0.318,2.188,1.451,3.615,1.552c0.058,0.211,0.115,0.423,0.174,0.635"/>
<path fill="#32B559" d="M104.899,6.598c1.33,0.38,1.13-0.518,1.993-0.697c0.878-0.182,1.548-0.208,2.473-0.196
	c2.096,0.028,4.194-0.003,6.29-0.003c1.794,0,3.59-0.026,5.383-0.003c2.277,0.029,3.999-0.92,6.276-0.891
	c1.729,0.022,3.692,0.243,5.399,0.018c1.728-0.227,2.573-0.952,4.467-0.913c3.034,0.062,8.575-2.879,9.656,1.099
	c0.523,1.925,0.083,4.062,0.182,6.069c0.11,2.243,0.965,4.164,0.918,6.455c-0.059,2.752,0.727,5.146,0.916,7.816
	c0.21,2.947-0.02,6.008-0.02,8.969c0,2.547-0.019,5.096-0.004,7.644c0.019,3.052-0.842,5.632-0.914,8.659
	c-0.092,3.84,0.021,7.701,0.021,11.542c0,3.865,0.414,8.01,0.046,11.855c-0.233,2.435-0.962,4.481-0.943,6.99
	c0.019,2.398,0.001,4.798,0,7.196c-0.002,4.315-0.936,8.194-0.896,12.529c0.021,2.271-0.704,3.887-0.942,6.079
	c-0.229,2.096,0.291,4.222-0.153,6.276c-0.122,0.562-0.597,1.159-0.718,1.951c-0.159,1.036,0.06,2.256,0.041,3.302
	c-0.072,4.095-0.951,8.075-0.914,12.188c0.055,5.955-0.004,11.912-0.004,17.866c0,6.246-0.399,12.647,0.697,18.69
	c0.914,5.034,0.2,10.947,0.2,16.137c0,7.987-0.005,15.974,0,23.959c0.001,1.34-0.056,2.693-0.021,4.033
	c0.055,2.166,0.785,3.938,0.963,6.049c0.273,3.242-0.048,6.672-0.046,9.932c0.003,5.162,0.896,10,0.896,15.199
	c0,2.092-0.015,4.184,0,6.275c0.017,2.461-0.831,3.84-1.029,6.145c-3.161,0.811-7.337,0.133-10.626,0.133
	c-1.793,0-3.588-0.029-5.38-0.004c-2.282,0.033-3.649-1.09-5.579-1.588c-0.886-0.229-1.611-0.006-2.493-0.152
	c-0.997-0.166-1.69-0.818-2.687-0.992c-1.725-0.305-3.655,0.395-5.379,0.092c-0.997-0.176-1.692-0.82-2.69-0.988
	c-0.874-0.148-1.814,0.234-2.69,0.092c-1.51-0.246-4.143-1.004-4.482-2.736"/>
<path fill="#F05053" d="M70.83,235.227c-0.226-0.182-0.451-0.363-0.677-0.545c-3.336,2.414-6.779,4.6-10.282,6.773
	c-2.921,1.812-5.681,3.729-8.665,5.498c-2.667,1.58-5.564,2.742-8.164,4.408c-3.697,2.369-7.387,4.193-10.812,7
	c-2.604,2.135-5.99,4.033-8.87,5.779c-1.65,1.002-2.837,2.33-4.532,3.16c-1.267,0.619-2.558,1.09-3.786,1.75
	c-1.456,0.781-2.324,1.791-3.586,2.734c-0.283,0.213-1.473,0.734-1.797,0.877c-1.502,0.658-2.068,0.977-3.404,2.039
	c-1.553,1.234-7.163,4.869-5.967,7.217c0.525,1.031,4.111,1.381,5.092,1.723c1.68,0.586,3.541,1.141,5.379,1.594
	c3.525,0.869,7.199,1.209,10.738,1.967c4.218,0.904,8.281,2.691,12.57,2.717c1.953,0.01,3.516,0.561,5.408,1.115
	c1.855,0.545,3.755,0.902,5.6,1.574c1.723,0.627,3.375,1.02,5.133,1.572c0.85,0.268,1.861,0.707,2.69,0.914
	c1.239,0.311,2.366-0.051,3.586,0.156c3.943,0.67,7.819,2.215,11.853,2.932c5.616,1,10.996,3.1,16.643,4.088
	c4.629,0.811,8.915,2.02,13.645,1.992c4.193-0.023,7.648,2.029,11.655,2.736c2.011,0.355,4.265-0.445,6.276-0.092
	c1.33,0.234,2.193,0.887,3.586,0.963c1.182,0.064,2.401-0.021,3.586-0.021c1.156,0,2.467-0.17,3.607-0.02
	c1.236,0.162,1.534,0.707,2.623,0.963c1.183,0.277,2.403-0.17,3.633,0.154c1.236,0.324,2.42,0.371,3.633,0.646
	c0.816,0.186,0.885,0.801,1.699,0.992c1.183,0.279,2.405-0.168,3.633,0.154c2.405,0.627,4.035,1.389,6.052-0.426
	c3.685-3.311,8.52-5.938,12.777-8.541c1.735-1.061,3.745-1.773,5.376-2.889c1.523-1.043,3.119-2.232,4.686-3.342
	c4.242-3.002,8.861-5.779,13.449-8.113c4.014-2.045,8.283-2.82,12.149-4.932c1.601-0.875,3.246-1.688,4.885-2.221
	c1.547-0.506,4.675-0.844,5.089-2.664c-2.176-1.283-4-2.736-6.185-3.832c-2.062-1.035-4.318-2.732-6.473-3.389
	c-5.212-1.586-10.464-2.727-15.938-3.984c-1.315-0.301-2.348-1.264-3.543-1.619c-1.623-0.482-3.672-0.371-5.276-0.85
	c-1.514-0.449-3.056-1.271-4.683-1.812c-1.541-0.51-2.876-0.732-4.433-1.098c-2.693-0.635-5.651-1.641-8.069-2.49
	c-2.496-0.877-5.319-1.613-8.069-2.467c-5.35-1.658-10.18-2.445-15.267-4.482c-5.312-2.129-10.982-3.324-16.533-4.486
	c-3.724-0.781-7.254-2.127-11.037-3.131c-3.312-0.877-6.666-1.764-10.082-2.494c-3.174-0.68-6.498-1.242-9.643-2.416
	c-1.693-0.633-2.972-0.918-4.682-1.342c-1.402-0.348-2.966-0.447-4.33-0.854c-0.051-0.248-0.103-0.496-0.153-0.744"/>
<path fill="#F5E253" d="M95.587,49.678c5.91,0.78,11.821,1.561,17.731,2.34c2.64,0.349,4.669,0.655,7.021,1.629
	c2.86,1.186,6.73,1.09,9.794,1.494c2.602,0.344,5.428,1.047,8.046,1.083c2.501,0.034,4.584-0.317,7.186,0.022
	c5.104,0.67,10.205,1.348,15.309,2.021c4.675,0.617,9.35,1.232,14.023,1.851c1.718,0.228,4.568-0.036,5.297,1.471
	c0.468,0.969-0.635,4.32-0.787,5.479c-0.223,1.696-0.447,3.392-0.672,5.088c-0.865,6.56-1.969,12.654-4.078,18.721
	c-1.533,4.411-0.756,9.561-2.094,14.016c-1.789,0.191-3.583-0.367-5.356-0.566c-1.755-0.199-3.135-0.049-4.918,0.053
	c-6.129,0.351-12.362-0.522-18.452-1.332c-4.412-0.586-8.512-2.066-12.914-2.605c-3.643-0.446-7.275-0.974-10.916-1.443
	c-1.098-0.143-2.492-0.091-3.541-0.421c-1.289-0.407-2.059-1.168-3.43-1.425c-2.624-0.492-5.353-0.686-8.002-1.035
	c-2.5-0.33-5.625-0.237-8.01-1.01c-2.721-0.883-4.969-2.568-7.756-2.879"/>
<path fill="#F5E253" d="M100.993,157.857c5.91,0.78,11.821,1.561,17.731,2.34c2.64,0.348,4.668,0.655,7.02,1.629
	c2.86,1.186,6.73,1.09,9.794,1.494c2.602,0.344,5.429,1.047,8.047,1.082c2.501,0.034,4.584-0.317,7.186,0.023
	c5.104,0.669,10.205,1.348,15.309,2.02c4.674,0.618,9.35,1.233,14.023,1.852c1.717,0.227,4.568-0.037,5.297,1.472
	c0.468,0.968-0.635,4.321-0.787,5.478c-0.223,1.696-0.448,3.392-0.672,5.087c-0.865,6.56-1.969,12.654-4.078,18.722
	c-1.533,4.41-0.757,9.561-2.094,14.016c-1.789,0.191-3.583-0.367-5.356-0.568c-1.756-0.197-3.135-0.047-4.918,0.055
	c-6.129,0.35-12.362-0.523-18.452-1.332c-4.412-0.586-8.513-2.066-12.914-2.605c-3.643-0.447-7.276-0.975-10.916-1.443
	c-1.099-0.143-2.492-0.09-3.541-0.42c-1.289-0.408-2.059-1.169-3.43-1.426c-2.625-0.492-5.353-0.686-8.002-1.035
	c-2.5-0.33-5.625-0.237-8.01-1.01c-2.722-0.883-4.969-2.568-7.756-2.88"/>
<path fill="#F5E253" d="M221.455,401.991c-2.828-0.926-5.143-3.381-8.072-4.26c-3.635-1.092-6.647-2.992-9.859-4.906
	c-2.655-1.582-4.93-4.018-7.418-5.848c-2.432-1.791-5.067-3.367-7.87-4.711c-1.143-0.549-2.172-1.416-3.34-2.039
	c-0.629-0.338-3.279-1.23-3.63-1.705c-0.646-0.873-0.16-3.27-0.156-4.328c0.007-2.164,0-4.33,0-6.494c0-3.514,0-7.025,0-10.539
	c0-1.348-0.36-3.234-0.046-4.529c0.196-0.812,0.807-0.883,0.992-1.697c0.195-0.861-0.152-1.689,0.089-2.586
	c3.732-0.309,8.474-4.352,11.538-6.43c1.809-1.225,3.456-2.537,5.358-3.609c2.483-1.4,4.839-2.43,7.239-4.281
	c2.808-2.162,6.004-4.697,9.122-6.23c1.454-0.715,3.029-2.176,4.456-2.738c0.78-0.307,1.588,0.07,2.318-0.352
	c0.785-0.451,0.773-1.42,1.77-1.51c0.066,0.264,0.133,0.527,0.199,0.789"/>
</svg>
