<?xml version="1.0" encoding="utf-8"?>
<!-- Generator: Adobe Illustrator 15.0.2, SVG Export Plug-In  -->
<!DOCTYPE svg PUBLIC "-//W3C//DTD SVG 1.1//EN" "http://www.w3.org/Graphics/SVG/1.1/DTD/svg11.dtd" [
	<!ENTITY ns_flows "http://ns.adobe.com/Flows/1.0/">
]>
<svg version="1.1"
	 xmlns="http://www.w3.org/2000/svg" xmlns:xlink="http://www.w3.org/1999/xlink" xmlns:a="http://ns.adobe.com/AdobeSVGViewerExtensions/3.0/"
	 x="0px" y="0px" width="263px" height="266px" viewBox="0 0 263 266" overflow="visible" enable-background="new 0 0 263 266"
	 xml:space="preserve">
<defs>
</defs>
<path fill="#FFFFFF" d="M0.059,10.349c0,3.78-0.354,7.68,0.675,11.215c0.649,2.229-0.093,4.635,0.386,6.858
	c0.128,0.589,0.588,1.081,0.697,1.913c0.15,1.133-0.261,2.379-0.064,3.499c0.17,0.968,0.795,1.642,0.96,2.61
	c0.145,0.852-0.288,1.814-0.09,2.654c0.187,0.791,0.779,0.857,0.963,1.646c0.179,0.773-0.019,1.66,0.145,2.464
	c0.122,0.592,0.602,1.063,0.699,1.913c0.112,0.954-0.079,1.666,0.171,2.63c0.271,1.035,0.65,1.477,0.699,2.606
	c0.056,1.275,0.416,1.836,0.657,2.807c1.715,6.874,5.748,11.694,11.476,15.678c2.693,1.873,5.627,2.965,8.507,4.352
	c3.301,1.589,6.989,3.29,10.652,4.157c3.468,0.821,6.938,2.458,10.438,3.261c2.195,0.502,3.98,1.168,6.136,1.953
	c2.232,0.812,4.596,1.145,6.863,1.912c4.451,1.51,8.775,2.906,13.288,3.963c2.469,0.577,5.393,0.492,7.926,0.869
	c3.221,0.481,6.584,0.193,9.839,0.193c14.093,0,28.185,0,42.277,0c5.654,0,11.31,0,16.963,0c5.541,0,11.466,0.62,16.964,0.045
	c2.296-0.239,4.154-0.962,6.521-0.935c2.291,0.028,4.874,0.331,7.154,0.065c1.91-0.223,3.529-0.908,5.504-0.938
	c2.208-0.035,3.914-0.676,6.068-0.895c1.793-0.182,3.133-0.287,4.93-0.632c1.125-0.224,2.261-0.279,3.4-0.165
	c1.054-0.25,1.769-0.746,2.84-0.92c4.99-0.814,9.604-1,14.466-2.584c4.498-1.466,9.049-2.355,13.596-3.698
	c1.778-0.526,3.138-1.677,4.886-2.22c2.242-0.696,4.336-0.943,6.58-1.914c6.339-2.74,11.356-6.345,16.254-11.09
	c2.048-1.984,1.356-3.583,1.504-6.305c0.072-1.35,0.707-2.188,0.936-3.479c0.232-1.326-0.047-2.991-0.047-4.35
	c0-5.219,0-10.438,0-15.657c0-5.701,0.87-10.825,0.87-16.526c0-2.674,0-5.348,0-8.021c0-2.811,0.634-6.605-0.173-9.286
	c-1.514,0.397-2.072,2.452-3.287,3.438c-1.771,1.442-3.599,2.863-5.414,4.302c-5.722,4.531-13.151,6.165-19.828,8.694
	c-6.938,2.629-14.519,3.181-21.748,4.565c-3.51,0.673-6.936,0.64-10.438,1.337c-1.753,0.348-3.468,0.047-5.228,0.359
	c-2.998,0.535-5.954,1.297-8.98,1.805c-3.916,0.66-8.143,1.359-12.105,1.55c-4.453,0.214-8.6-0.067-13.021,0.635
	c-4.736,0.751-9.715,0.675-14.505,1.229c-3.375,0.391-6.5,1.534-9.914,1.615c-3.732,0.088-7.299,0.705-11.005,0.87
	c-6.261,0.28-12.342,0.048-18.605,0.631c-2.884,0.269-5.687,0.202-8.572,0.19c-3.988-0.018-8.243,0.508-12.185-0.17
	c-3.365-0.579-6.732-1.571-10.092-2.219c-1.245-0.24-2.591-0.759-3.802-0.949c-3.063-0.484-4.897,1.261-6.811,3.342"/>
<path fill="#FFFFFF" d="M104.423,94.488c-9.41,0.522-18.518,4.226-27.395,7.095c-6.002,1.939-11.657,4.076-17.487,6.47
	c-5.678,2.333-12.336,5.342-17.411,8.93c-3.227,2.282-6.509,3.776-9.396,6.54c-2.477,2.369-5.185,4.648-7.734,6.961
	c-1.971,1.788-3.386,3.111-4.617,5.549c-0.909,1.803-2.074,2.789-2.863,4.643c-1.168,2.748-2.37,5.3-2.313,8.418
	c0.034,1.719-0.665,2.957-0.784,4.613c-0.131,1.892,0.13,3.02,0.812,4.593c0.48,1.114,0.494,2.216,1.305,3.31
	c0.774,1.045,1.628,1.68,2.306,2.846c1.879,3.24,4.121,4.872,6.981,7.151c6.673,5.315,15.347,7.438,23.566,9.21
	c2.964,0.639,5.936,1.582,8.941,1.965c1.582,0.201,3.076,0.057,4.659,0.279c2.085,0.295,3.954,1.143,6.016,1.449
	c8.436,1.256,17.194,0.602,25.59,2.096c3.579,0.638,7.548,0.172,11.172,0.172c3.851,0,7.703,0,11.556,0c8.195,0,16.393,0,24.588,0
	c3.763,0,7.285,0.055,10.982-0.601c3.121-0.554,6.762-0.936,9.934-0.956c3.321-0.02,6.726,0.264,10.039,0.059
	c3.364-0.209,6.856-1.218,10.189-1.77c10.389-1.722,20.735-4.005,30.595-8.078c4.111-1.699,8.239-3.215,12.325-4.998
	c1.904-0.831,3.519-2.148,5.358-3.094c1.828-0.938,3.866-2.06,5.406-3.445c2.625-2.362,4.587-5.637,6.111-8.648
	c0.792-1.562,1.226-3.057,1.71-4.787c0.737-2.627,2.029-4.733,2.153-7.555c0.152-3.409-0.377-5.602-1.747-8.556
	c-2.031-4.373-4.168-8.896-7.669-12.34c-12.709-12.501-30.209-18.114-47.32-21.536c-4.249-0.85-8.671-1.367-13.097-1.369
	c-4.498-0.003-8.65-0.77-13.159-0.77c-3.915,0-9.374,0.869-13.197-0.172c-4.764-1.295-10.373-0.597-15.403-0.597
	c-5.563,0-11.125,0-16.687,0c-2.34,0-4.682-0.002-7.021,0c-2.111,0.001-4.252-0.152-6.358-0.091
	c-4.076,0.118-8.38,2.585-12.173,3.936"/>
<path fill="#FFFFFF" d="M126.727,207.542c1.535,1.172,0.787,5.138,0.771,6.884c-0.033,3.409,1.055,6.489,1.578,9.784
	c0.29,1.838,0.27,3.803,0.557,5.67c0.232,1.523,0.175,3.001,0.17,4.539c-0.012,3.019,0,6.039,0,9.058c0,2.606-0.001,5.215,0,7.821
	c0,1.465-0.333,3.301-0.04,4.73c0.295,1.442,0.831,2.264,0.807,3.809c-0.034,1.898-0.181,4.219,1.312,5.613
	c1.296,1.213,4.651,0.54,6.382,0.54c5.125,0,10.252-0.024,15.38,0c0.636,0.004,2.473,0.37,2.96-0.116
	c0.545-0.545,0.119-2.9,0.117-3.652c-0.016-3.907,0.565-8.441-0.172-12.271c-1.49-7.734-0.005-15.955-1.196-23.762
	c-0.551-3.615-0.074-7.203-0.769-10.783c-0.442-2.271-0.171-4.773-0.171-7.095"/>
</svg>
