<?xml version="1.0" encoding="utf-8"?>
<!-- Generator: Adobe Illustrator 15.0.2, SVG Export Plug-In  -->
<!DOCTYPE svg PUBLIC "-//W3C//DTD SVG 1.1//EN" "http://www.w3.org/Graphics/SVG/1.1/DTD/svg11.dtd" [
	<!ENTITY ns_flows "http://ns.adobe.com/Flows/1.0/">
]>
<svg version="1.1"
	 xmlns="http://www.w3.org/2000/svg" xmlns:xlink="http://www.w3.org/1999/xlink" xmlns:a="http://ns.adobe.com/AdobeSVGViewerExtensions/3.0/"
	 x="0px" y="0px" width="63px" height="64px" viewBox="0 0 63 64" overflow="visible" enable-background="new 0 0 63 64"
	 xml:space="preserve">
<defs>
</defs>
<path fill="#F05053" d="M16.173,2.511c-1.032,0.41-2.916,0.922-3.873,1.666c-0.941,0.73-1.501,1.943-2.303,2.824
	C9.257,7.818,8.735,7.83,7.931,8.948c-0.992,1.379-1.678,2.872-2.523,4.329c-1.434,2.477-3.043,5.007-4.03,7.74
	c-1.674,4.623-1.353,9.115-1.353,13.936c0,4.602,0.063,9.355,1.538,13.739c0.479,1.427,0.755,3.236,1.733,4.425
	c1.094,1.328,2.923,1.9,4.418,2.65c3.032,1.518,6.062,3.275,9.229,4.424c1.59,0.577,3.022,1.416,4.576,2.113
	c2.272,1.023,3.935,0.525,6.191,0.924c0.848,0.148,1.446,0.686,2.29,0.848c0.858,0.164,2.055-0.036,2.922-0.039
	c1.864-0.007,3.735,0.049,5.597-0.002c4.275-0.119,7.15-2.559,10.555-4.806c6.757-4.462,14.05-11.833,14.014-20.315
	c-0.018-4.572,0.68-9.746-0.923-14.117c-0.716-1.959-2.347-3.699-3.514-5.402c-0.809-1.178-1.257-2.211-2.294-3.23
	c-4.388-4.311-9.396-7.277-14.035-11.346c-2.488-2.184-5.195-3.345-8.455-3.888c-0.729-0.122-1.407,0.021-2.14-0.13
	c-0.503-0.102-0.975-0.52-1.69-0.615c-1.508-0.197-3.91-0.283-5.402-0.021c-0.854,0.15-1.452,0.697-2.308,0.849
	c-0.933,0.164-2.121-0.036-3.076-0.04c-2.09-0.008-3.53-0.271-3.846,2.307"/>
</svg>
