<?xml version="1.0" encoding="utf-8"?>
<!-- Generator: Adobe Illustrator 15.0.2, SVG Export Plug-In  -->
<!DOCTYPE svg PUBLIC "-//W3C//DTD SVG 1.1//EN" "http://www.w3.org/Graphics/SVG/1.1/DTD/svg11.dtd" [
	<!ENTITY ns_flows "http://ns.adobe.com/Flows/1.0/">
]>
<svg version="1.1"
	 xmlns="http://www.w3.org/2000/svg" xmlns:xlink="http://www.w3.org/1999/xlink" xmlns:a="http://ns.adobe.com/AdobeSVGViewerExtensions/3.0/"
	 x="0px" y="0px" width="54px" height="34px" viewBox="0 0 54 34" overflow="visible" enable-background="new 0 0 54 34"
	 xml:space="preserve">
<defs>
</defs>
<path fill="#32B559" d="M0,27.824c0.118-6.365,5.004-13.306,10.66-16.021c3.624-1.738,7.067-3.813,10.701-5.513
	c3.006-1.402,5.96-1.955,9.279-2.287c3.8-0.38,7.793-0.611,11.444-1.562c2.668-0.695,5.233-1.855,7.905-2.344
	c0.445-0.082,2.653-0.226,2.961,0.141c0.225,0.494,0.263,1.012,0.112,1.554c0.086,1.401,0.351,2.444,0.6,3.769
	c0.25,1.326,0.178,2.632,0.173,3.998c-0.006,1.454,0.5,3.887,0.055,5.25c-0.312,0.956-1.91,1.992-2.576,2.807
	c-1.229,1.502-2.089,2.882-3.652,4.075c-2.006,1.53-3.582,3.536-5.574,5.171c-3.52,2.888-8.764,7.172-13.632,7.112
	c-4.826-0.058-10.067,0.737-14.611-0.938c-1.077-0.395-2.012-1.016-3.097-1.385c-1.001-0.344-1.97-0.463-3.018-0.922
	c-1.346-0.592-2.594-0.959-3.883-1.367c-0.785-0.249-2.066-0.863-2.93-0.918c-0.049-0.207-0.101-0.414-0.148-0.619"/>
</svg>
