<?xml version="1.0" encoding="utf-8"?>
<!-- Generator: Adobe Illustrator 15.0.2, SVG Export Plug-In  -->
<!DOCTYPE svg PUBLIC "-//W3C//DTD SVG 1.1//EN" "http://www.w3.org/Graphics/SVG/1.1/DTD/svg11.dtd" [
	<!ENTITY ns_flows "http://ns.adobe.com/Flows/1.0/">
]>
<svg version="1.1"
	 xmlns="http://www.w3.org/2000/svg" xmlns:xlink="http://www.w3.org/1999/xlink" xmlns:a="http://ns.adobe.com/AdobeSVGViewerExtensions/3.0/"
	 x="0px" y="0px" width="58px" height="38px" viewBox="0 0 58 38" overflow="visible" enable-background="new 0 0 58 38"
	 xml:space="preserve">
<defs>
</defs>
<path fill="#32B559" d="M57.969,29.163c0.299-2.67-1.24-6.152-2.502-8.478c-1.287-2.372-2.832-3.556-5.233-4.593
	c-2.276-0.985-4.489-1.516-6.878-2.139c-1.291-0.338-2.683-0.174-4.016-0.172c-1.828,0.004-2.908-0.193-4.614-0.598
	c-1.502-0.355-2.964,0.017-4.442-0.346c-1.123-0.275-2.014-1.088-3.039-1.385c-1.396-0.408-2.498-0.686-3.902-1.347
	c-1.007-0.474-1.991-1.118-3.04-1.538c-2.628-1.047-4.694-2.443-7.129-3.846C11.396,3.702,8.619,2.051,7.765,0
	c-1.621,0.862-2.729,2.305-3.8,3.788C2.896,5.267,0.971,6.812,0.443,8.534c-1.451,4.738,1.014,11.58,2.34,16.021
	c1.018,3.404,2.543,6.754,5.964,8.301c1.481,0.67,3.033,0.834,4.615,0.901c2.104,0.089,3.927,0.81,6.169,0.79
	c1.711-0.016,2.977-0.051,4.559,0.558c1.665,0.642,3.673,1.483,5.421,1.788c1.518,0.266,3.074-0.23,4.599,0.132
	c1.826,0.435,3.299,0.815,5.226,0.427c2.299-0.463,5.663-2.42,7.653-3.865c1.3-0.943,2.552-1.549,4.058-2.113
	c1.815-0.682,3.505-0.368,5.253-0.903c0.042-0.213,0.088-0.425,0.132-0.638"/>
</svg>
