<?xml version="1.0" encoding="utf-8"?>
<!-- Generator: Adobe Illustrator 15.0.2, SVG Export Plug-In  -->
<!DOCTYPE svg PUBLIC "-//W3C//DTD SVG 1.1//EN" "http://www.w3.org/Graphics/SVG/1.1/DTD/svg11.dtd" [
	<!ENTITY ns_flows "http://ns.adobe.com/Flows/1.0/">
]>
<svg version="1.1"
	 xmlns="http://www.w3.org/2000/svg" xmlns:xlink="http://www.w3.org/1999/xlink" xmlns:a="http://ns.adobe.com/AdobeSVGViewerExtensions/3.0/"
	 x="0px" y="0px" width="155px" height="119px" viewBox="0 0 155 119" overflow="visible" enable-background="new 0 0 155 119"
	 xml:space="preserve">
<defs>
</defs>
<path fill="#32B559" d="M151.275,0c-1.613,2.05-3.063,3.874-4.034,6.325c-1.114,2.817-2.148,5.672-3.441,8.329
	c-0.819,1.683-2.31,3.771-4.025,4.782c-2.315,1.365-5.687,1.359-8.215,2.1c-2.481,0.728-4.751,1.789-7.237,2.494
	c-1.261,0.357-2.505,1.164-3.809,1.388c-1.417,0.244-3.168-0.038-4.613-0.038c-1.273,0-2.578,0.086-3.846,0.017
	c-1.657-0.089-2.896-0.806-4.615-0.784c-2.941,0.039-5.705-0.302-8.461,0.768c-1.5,0.581-3.091,0.977-4.615,1.366
	c-0.849,0.218-1.481,0.052-2.323,0.151c-0.767,0.09-1.15,0.502-1.69,0.617c-1.192,0.257-2.414,0.184-3.656,0.172
	c-2.067-0.019-3.454,0.31-5.382,0.791c-3.654,0.911-7.496,1.26-11.214,2.096c-1.629,0.367-3.205,0.592-4.786,0.936
	c-0.9,0.197-1.585,0.673-2.475,0.831c-0.75,0.134-1.562-0.206-2.312-0.079c-0.849,0.144-1.446,0.687-2.29,0.849
	c-0.909,0.175-2.018-0.119-2.939-0.058c-1.425,0.096-2.549,0.625-3.999,0.959c-2.614,0.6-5.017,2.322-7.266,3.674
	c-2.785,1.676-5.952,2.978-8.886,4.424c-3.75,1.85-6.834,4.512-10.017,7.151c-1,0.831-2.045,1.579-3.021,2.424
	c-1.633,1.407-2.909,3.449-4.603,4.702c1.005,1.041,4.185,0.646,5.696,0.562c2.678-0.148,4.865-1.775,7.546-2.19
	c1.255-0.194,2.383,0.015,3.604-0.111c1.272-0.132,2.409-0.731,3.704-0.851c2.712-0.252,5.322,0.16,7.896,0.637
	c3.726,0.69,8.457,0.494,12.098-0.409c3.455-0.856,6.55-2.545,10.168-2.493c3.623,0.051,6.527-0.98,9.958-1.541
	c3.665-0.6,7.302-1.736,10.808-3.076c1.545-0.59,3.053-0.764,4.574-1.33c2.302-0.857,4.574-1.777,6.829-2.726
	c1.232-0.518,2.601-1.036,3.958-1.499c1.578-0.537,4.322-2.559,5.939-2.08c-0.678,1.564-1.869,2.563-2.975,3.705
	c-1.908,1.966-3.616,3.381-5.891,4.929c-2.271,1.546-4.672,3.125-7.014,4.575c-5.16,3.196-11.085,3.297-16.189,5.963
	c-2.191,1.143-4.311,2.088-6.347,3.635c-2.884,2.193-5.496,4.834-8.29,7.157c-3.235,2.689-6.059,4.979-10.185,5.953
	c-1.522,0.358-2.866,0.368-4.404,0.944c-1.169,0.438-3.821,1.049-4.385,2.269c0.514,1.274,1.993,2.72,2.824,3.88
	c0.92,1.279,1.547,2.452,3.085,2.172c0.506-0.276,1.012-0.557,1.513-0.842c1.126-0.479,2.063-0.269,3.155-0.537
	c0.819-0.2,1.436-0.686,2.269-0.83c0.744-0.129,1.545,0.207,2.289,0.078c4.084-0.695,7.728-2.691,11.729-3.692
	c4.621-1.155,7.641-2.815,11.325-5.576c3.291-2.466,7.551-3.712,11.145-5.724c2.799-1.568,5.424-3.23,8.102-4.832
	c2.73-1.633,4.637-3.54,6.744-5.805c0.61-0.652,1.273-1.295,1.924-1.906c0.905-0.848,2.167-1.316,2.953-2.229
	c0.116,1.387-0.989,1.692-1.461,2.771c-0.15,0.624-0.241,1.257-0.273,1.898c-0.406,1.56-1.42,2.666-2.028,4.115
	c-0.251,0.771-0.487,1.55-0.71,2.332c-0.492,1.097-1.148,1.613-1.77,2.625c-0.395,0.682-0.696,1.402-0.9,2.161
	c-0.715,1.119-1.84,1.927-2.758,2.866c-0.652,0.555-1.208,1.193-1.664,1.918c-1.182,1.229-2.357,1.956-3.675,3.035
	c-2.105,1.724-4.001,3.604-6.186,5.248c-1.246,0.936-2.635,1.548-3.849,2.463c-0.861,0.648-1.433,1.736-2.447,2.333
	c-2.816,1.657-4.883,3.443-6.916,5.938c-2.316,2.841-6.014,5.062-9.097,6.979c-1.323,0.822-2.8,1.567-4.189,2.27
	c-1.958,0.992-3.767,2.32-5.812,3.116c-2.175,0.846-6.86,2.035-7.836,4.361c5.11,2.6,9.816,2.483,15.376,2.516
	c4.149,0.023,8.084-1.076,12.29-0.785c3.417,0.238,7.238,1.593,10.805,0.827c1.787-0.384,3.592-1.231,5.344-1.792
	c2.195-0.701,4.492-0.941,6.73-1.495c4.518-1.118,8.34-3.604,12.342-5.811c3.839-2.116,6.684-6.138,9.385-9.556
	c1.907-2.413,3.606-5.124,5.438-7.57c1.086-1.448,1.973-3.238,2.847-4.785c1.552-2.75,2.813-6.002,3.999-9.005
	c0.603-1.532,1.312-3.181,2.112-4.652c0.466-0.853,1.237-1.556,1.6-2.458c0.343-0.85,0.402-1.994,0.708-2.883
	c1.229-3.569,0.983-6.988,0.983-10.75c0-1.806,0.026-3.613,0.001-5.42c-0.023-1.688,0.549-2.426,0.96-3.999
	c0.81-3.098,2.284-5.816,3.052-8.907c0.379-0.181,0.591-0.48,0.641-0.9c0.174-0.73-0.151-1.617-0.057-2.365
	c0.092-0.727,0.51-1.183,0.615-1.691c0.146-0.707-0.029-1.496,0.128-2.179c0.164-0.698,0.692-0.755,0.854-1.452
	c0.158-0.677-0.011-1.477,0.13-2.179c0.02-0.104,0.545-1.56,0.598-1.71c0.161-0.469,0.43-1.268,0.579-1.709
	c1.703-5.003,3.322-10.428,5.477-15.035c-0.904-0.056-1.426-0.652-2.188-0.967c-0.783-0.319-1.504-0.324-2.329-0.746"/>
<path fill="#32B559" d="M112.824,38.454c-1.447-0.033-1.974,0.039-3.077,0.941c-1.208,0.989-2.486,2.07-3.692,3.113
	c-2.246,1.942-4.41,3.492-7.058,4.385c-2.815,0.949-5.884,2.003-8.455,3.117c-2.467,1.069-5.706,0.797-8.44,1.498
	c-3.237,0.828-6.267,2.355-9.097,4.096c-2.072,1.272-4.438,2.193-6.536,3.4c-2.221,1.275-4.533,3.279-6.559,5.036
	c-1.783,1.547-3.744,2.835-5.749,4.213c-0.772,0.531-1.424,1.13-2.287,1.54c-1.35,0.64-2.086,0.539-1.572,1.922
	c0.317,0.854,1.727,2.352,2.343,3.092c0.903,1.088,2.031,1.461,3.115,2.289c2.101,1.604,3.565,3.777,6.305,2.115
	c4.118-2.501,8.687-4.579,12.96-6.959c3.235-1.802,5.979-3.879,9.304-5.301c2.074-0.889,3.842-1.983,5.764-3.104
	c1.369-0.798,2.386-1.248,3.539-2.319c0.789-0.731,1.397-1.494,2.271-2.136c3.359-2.464,7.547-4.054,11.324-5.708
	c1.996-0.876,3.674-2.422,5.477-3.616c1.542-1.021,3.516-1.882,4.854-3.155c0.902-0.859,1.338-2.148,2.187-3.076"/>
<path fill="#32B559" d="M74.369,55.373c2.316-1.022,4.528-2.188,6.729-3.269c2.136-1.049,3.729-2.904,5.743-4.229
	c0.994-0.653,1.855-1.1,2.716-1.921c0.835-0.797,1.397-0.951,2.312-1.521c2.467-1.541,4.803-3.503,7.109-5.23
	c2.306-1.723,5.225-3.325,7.731-4.613c2.103-1.077,4.437-0.736,6.882-0.75c1.367-0.008,2.175-0.11,3.287,0.561
	c0.678,0.41,2.229,1.355,2.734,1.9c0.484,0.523,1.071,2.963,0.972,3.691c-0.216,1.599-2.088,2.767-3.147,3.846"/>
<path fill="#F05053" d="M54.373,75.368c-0.689-1.432-2.154-2.539-3.076-3.845c-1.158-1.638-2.291-2.501-3.906-3.694
	c-2.395-1.77-5.454-3.323-8.398-4.018c-3.148-0.744-6.107-0.611-9.419-0.73c-1.408-0.05-3.072-1.338-4.466-0.838
	c-2.365,0.848-0.463,3.383-1.613,4.55c-0.508,0.515-3.713,0.243-4.456,0.153c-2.126-0.261-2.771-1.155-4.235-2.344
	c-1.716-1.395-3.697-1.682-5.841-1.551C6.9,63.177,6.354,64.574,4.96,65.948c-1.207,1.19-1.925,1.542-2.133,3.25
	c-0.152,1.25-0.29,3.409-0.04,4.633c0.323,1.578,1.812,3.027,2.944,4.056c1.17,1.062,4.061,2.459,3.931,4.235
	c-0.107,1.47-3.396,3.535-4.505,4.029c-1.824,0.811-2.746,1.158-3.68,3.061c-1.399,2.854-2.707,5.295,0.58,7.54
	c1.355,0.927,3.161,1.958,4.632,2.687c1.384,0.688,3.142,0.76,4.615,1.139c2.488,0.639,2.916-0.497,3.859,2.292
	c0.254,0.749,0.656,1.703,0.794,2.491c0.169,0.947-0.367,1.959,0.056,2.867c0.252,0.546,1.956,2.037,2.443,2.58
	c0.468,0.521,1.011,0.978,1.499,1.459c1.344,1.33,2.132,3.015,3.096,4.646c0.9,1.527,1.08,2.072,2.847,2.309
	c1.927,0.256,3.465-0.817,5.403-0.781c1.985,0.034,2.804,0.514,3.089-1.527c0.213-1.513-0.23-3.133-0.032-4.646
	c0.195-1.479,0.826-2.205,0.786-3.828c-0.056-2.321,0.521-2.468,2.329-3.654c1.947-1.277,2.721-1.744,5.192-1.727
	c2.366,0.019,4.37,0.223,6.495-0.754c3.038-1.398,6.775-3.131,8.096-6.344c0.545-1.325,1.467-3.104,1.77-4.4
	c0.451-1.941-0.428-4.228-0.079-6.193c0.209-1.176,0.945-1.699,0.673-2.904c-0.121-0.542-1.299-1.711-1.613-2.309
	c-0.795-1.504-1.618-3.041-3.635-3.246"/>
</svg>
