<?xml version="1.0" encoding="utf-8"?>
<!-- Generator: Adobe Illustrator 15.0.2, SVG Export Plug-In  -->
<!DOCTYPE svg PUBLIC "-//W3C//DTD SVG 1.1//EN" "http://www.w3.org/Graphics/SVG/1.1/DTD/svg11.dtd" [
	<!ENTITY ns_flows "http://ns.adobe.com/Flows/1.0/">
]>
<svg version="1.1"
	 xmlns="http://www.w3.org/2000/svg" xmlns:xlink="http://www.w3.org/1999/xlink" xmlns:a="http://ns.adobe.com/AdobeSVGViewerExtensions/3.0/"
	 x="0px" y="0px" width="173px" height="161px" viewBox="0 0 173 161" overflow="visible" enable-background="new 0 0 173 161"
	 xml:space="preserve">
<defs>
</defs>
<path fill="#405DA2" d="M68.565,0.067c-6.981,0.387-15.513,0.926-22.098,3.054c-4.453,1.44-8.647,3.024-12.972,4.8
	c-4.213,1.73-9.152,3.963-12.917,6.624c-2.395,1.694-4.827,2.802-6.97,4.851c-1.838,1.759-3.845,3.449-5.737,5.164
	c-1.465,1.327-2.514,2.309-3.425,4.117c-0.675,1.337-1.54,2.068-2.125,3.444c-0.865,2.038-1.758,3.932-1.715,6.243
	c0.025,1.275-0.495,2.195-0.582,3.424c-0.099,1.402,0.096,2.238,0.601,3.406c0.359,0.827,0.367,1.644,0.968,2.455
	c0.577,0.775,1.21,1.246,1.711,2.111c1.394,2.402,3.058,3.614,5.182,5.305c4.949,3.943,11.382,5.519,17.481,6.832
	c2.198,0.475,4.402,1.174,6.631,1.459c1.176,0.148,2.283,0.041,3.458,0.207c1.547,0.217,2.931,0.847,4.462,1.074
	c6.259,0.932,12.755,0.446,18.983,1.556c2.655,0.473,5.6,0.126,8.288,0.126c2.856,0,5.714,0,8.573,0c6.078,0,12.158,0,18.239,0
	c2.792,0,5.402,0.041,8.146-0.445c2.315-0.41,5.018-0.693,7.37-0.708c2.464-0.016,4.989,0.194,7.447,0.042
	c2.496-0.154,5.085-0.902,7.558-1.312c7.708-1.276,15.384-2.971,22.696-5.992c3.052-1.261,6.113-2.385,9.146-3.707
	c1.409-0.617,2.61-1.595,3.974-2.297c1.355-0.695,2.867-1.527,4.011-2.555c1.945-1.752,3.401-4.182,4.534-6.416
	c0.586-1.158,0.907-2.268,1.268-3.55c0.548-1.95,1.505-3.513,1.599-5.604c0.111-2.53-0.281-4.156-1.297-6.348
	c-1.509-3.244-3.093-6.599-5.691-9.153c-9.427-9.274-22.408-13.438-35.103-15.976c-3.151-0.632-6.433-1.016-9.716-1.017
	c-3.336-0.003-6.415-0.57-9.761-0.57c-2.903,0-6.955,0.646-9.792-0.128c-3.531-0.961-7.693-0.443-11.426-0.443
	c-4.126,0-8.252,0-12.378,0c-1.735,0-3.471,0-5.208,0c-1.566,0.002-3.153-0.112-4.716-0.066c-3.024,0.087-6.216,1.918-9.03,2.919"/>
<path fill="#405DA2" d="M2.359,43.602c0,3.059-0.185,6.18-0.017,9.229c0.197,3.601,2.563,7.183,4.785,9.956
	c1.381,1.726,2.65,2.188,4.461,3.291c1.597,0.97,2.945,2.154,4.784,2.732c4.135,1.297,8.232,0.316,11.363,3.811
	c3.329,3.714,1.596,8.859,3.102,13.316c0.506,1.5,0.704,2.58,2.268,3.658c1.462,1.012,3.703,1.859,5.401,2.285
	c2.794,0.697,6.332,0.193,9.228,0.173c1.819-0.013,2.919,0.521,4.615,0.809c1.821,0.31,3.581,0.295,5.384,0.712
	c3.706,0.854,4.202,3.006,5.383,6.171c0.534,1.429,1.299,3.103,1.577,4.597c0.362,1.935-0.356,4.043,0.132,5.959
	c0.419,1.643,0.63,3.01,0.602,4.826c-0.029,1.797,0.294,3.201,1.495,4.632c2.786,3.316,7.533,3.804,10.65,6.693
	c2.658,2.462,4.068,6.765,4.004,10.208c-0.031,1.721,0.695,2.957,0.785,4.614c0.098,1.78-0.029,3.599-0.018,5.384
	c0.02,3.135-1.281,5.877-0.598,9.057c0.111,0.526,0.521,0.949,0.615,1.691c0.08,0.639-0.316,1.809-0.072,2.383
	c0.561,1.33,3.279,1.498,4.669,1.479c1.529-0.022,3.087,0.104,4.614,0.02c1.658-0.089,2.896-0.809,4.618-0.783
	c1.683,0.025,3.764,0.352,5.397,0.037c0.841-0.161,1.45-0.674,2.289-0.848c0.884-0.186,2.324,0.455,3.132,0.094
	c1.134-0.509,1.4-4.195,1.522-5.518c0.137-1.47-0.04-3.055-0.04-4.535c0-3.333,0.013-6.666,0-9.998
	c-0.012-3.268,0.483-5.522,2.887-7.881c0.823-0.809,1.479-1.596,2.464-2.117c1.866-0.989,4.2-1.556,6.184-2.305
	c1.751-0.661,3.453-0.776,4.842-2.125c1.04-1.01,1.893-2.451,2.124-3.987c0.646-4.294,0.725-8.566,0.728-13.112
	c0-3.139,0.251-5.398,2.096-7.906c1.812-2.465,4.328-3.727,7.133-4.381c3.198-0.748,6.367-0.992,9.266-2.908
	c3.062-2.025,3.852-5.244,3.812-8.65c-0.031-2.559,0.762-6.359,2.501-8.266c2.229-2.449,6.227-3.759,8.987-5.555
	c2.85-1.855,6.054-3.926,7.754-6.904c0.734-1.289,1.038-3.199,1.523-4.619c0.856-2.512,1.551-4.92,1.532-7.555
	c-0.036-5.286,1.545-10.338,0.173-15.553c-0.51-1.942,0.224-4.07-0.345-5.979c-0.162-0.548-1.016-1.341-1.193-1.886
	c-0.343-1.059,0.14-2.104-0.939-2.902"/>
</svg>
