<?xml version="1.0" encoding="utf-8"?>
<!-- Generator: Adobe Illustrator 15.0.2, SVG Export Plug-In  -->
<!DOCTYPE svg PUBLIC "-//W3C//DTD SVG 1.1//EN" "http://www.w3.org/Graphics/SVG/1.1/DTD/svg11.dtd" [
	<!ENTITY ns_flows "http://ns.adobe.com/Flows/1.0/">
]>
<svg version="1.1"
	 xmlns="http://www.w3.org/2000/svg" xmlns:xlink="http://www.w3.org/1999/xlink" xmlns:a="http://ns.adobe.com/AdobeSVGViewerExtensions/3.0/"
	 x="0px" y="0px" width="63px" height="64px" viewBox="0 0 63 64" overflow="visible" enable-background="new 0 0 63 64"
	 xml:space="preserve">
<defs>
</defs>
<path fill="#F05053" d="M16.177,2.51c-1.033,0.411-2.917,0.922-3.875,1.667c-0.94,0.73-1.5,1.944-2.301,2.824
	C9.258,7.818,8.736,7.83,7.933,8.947c-0.991,1.381-1.677,2.873-2.522,4.33c-1.435,2.477-3.044,5.006-4.033,7.74
	c-1.671,4.623-1.353,9.114-1.353,13.936c0,4.602,0.063,9.354,1.54,13.738c0.479,1.428,0.755,3.236,1.733,4.424
	c1.094,1.33,2.922,1.902,4.42,2.651c3.03,1.518,6.061,3.276,9.227,4.425c1.59,0.576,3.021,1.416,4.576,2.113
	c2.273,1.022,3.936,0.524,6.192,0.924c0.847,0.148,1.446,0.687,2.29,0.848c0.855,0.164,2.055-0.037,2.922-0.04
	c1.865-0.006,3.734,0.05,5.598-0.002c4.274-0.119,7.149-2.558,10.552-4.806c6.759-4.461,14.049-11.832,14.015-20.315
	c-0.017-4.571,0.681-9.745-0.922-14.117c-0.717-1.958-2.347-3.698-3.516-5.402c-0.809-1.178-1.257-2.211-2.293-3.229
	c-4.389-4.312-9.395-7.278-14.035-11.346c-2.487-2.184-5.193-3.345-8.456-3.889c-0.727-0.121-1.405,0.021-2.138-0.129
	c-0.502-0.103-0.976-0.521-1.691-0.615c-1.509-0.197-3.909-0.283-5.402-0.021c-0.855,0.15-1.451,0.697-2.308,0.848
	c-0.931,0.164-2.122-0.035-3.076-0.039c-2.09-0.008-3.53-0.271-3.843,2.307"/>
</svg>
