<?xml version="1.0" encoding="utf-8"?>
<!-- Generator: Adobe Illustrator 15.0.2, SVG Export Plug-In  -->
<!DOCTYPE svg PUBLIC "-//W3C//DTD SVG 1.1//EN" "http://www.w3.org/Graphics/SVG/1.1/DTD/svg11.dtd" [
	<!ENTITY ns_flows "http://ns.adobe.com/Flows/1.0/">
]>
<svg version="1.1"
	 xmlns="http://www.w3.org/2000/svg" xmlns:xlink="http://www.w3.org/1999/xlink" xmlns:a="http://ns.adobe.com/AdobeSVGViewerExtensions/3.0/"
	 x="0px" y="0px" width="50px" height="29px" viewBox="0 0 50 29" overflow="visible" enable-background="new 0 0 50 29"
	 xml:space="preserve">
<defs>
</defs>
<path fill="#32B559" d="M48.499,8.515c-1.136-1.193-1.471-2.295-2.907-3.285c-1.058-0.73-1.825-1.108-3.074-1.52
	c-2.413-0.793-5.268-1.27-7.861-1.947c-2.338-0.609-5.263-0.17-7.69-0.17c-2.82,0-5.641,0-8.459,0c-2.549,0-5.148,0.154-7.691,0.018
	C9.417,1.534,8.37,0.864,6.973,0.803C5.389,0.733,4.611,0.155,3.144,0.021c-3.77-0.342-3.097,3.705-3.097,6.187
	c0,2.977,0.109,4.372,1.734,6.71c1.54,2.221,2.146,4.724,4.441,6.17c2.198,1.387,4.03,3.295,6.131,4.808
	c2.158,1.556,3.438,2.361,6.153,2.311c3.146-0.06,5.403,1.944,8.498,2.345c3.017,0.391,5.248-0.13,7.672-1.794
	c2.645-1.817,4.926-4.249,7.07-6.704c1.623-1.859,3.253-3.271,4.637-5.363c0.591-0.896,0.93-2.115,1.52-2.928
	c0.646-0.893,1.907-1.328,2.135-2.478"/>
</svg>
