<?xml version="1.0" encoding="utf-8"?>
<!-- Generator: Adobe Illustrator 15.0.2, SVG Export Plug-In  -->
<!DOCTYPE svg PUBLIC "-//W3C//DTD SVG 1.1//EN" "http://www.w3.org/Graphics/SVG/1.1/DTD/svg11.dtd" [
	<!ENTITY ns_flows "http://ns.adobe.com/Flows/1.0/">
]>
<svg version="1.1"
	 xmlns="http://www.w3.org/2000/svg" xmlns:xlink="http://www.w3.org/1999/xlink" xmlns:a="http://ns.adobe.com/AdobeSVGViewerExtensions/3.0/"
	 x="0px" y="0px" width="63px" height="64px" viewBox="0 0 63 64" overflow="visible" enable-background="new 0 0 63 64"
	 xml:space="preserve">
<defs>
</defs>
<path fill="#F05053" d="M16.176,2.51c-1.033,0.411-2.919,0.923-3.876,1.667c-0.938,0.73-1.5,1.945-2.301,2.825
	C9.257,7.817,8.736,7.83,7.932,8.949c-0.991,1.379-1.679,2.871-2.522,4.329c-1.435,2.476-3.045,5.005-4.033,7.739
	c-1.671,4.623-1.352,9.115-1.352,13.936c0,4.602,0.063,9.355,1.538,13.739c0.479,1.427,0.757,3.236,1.733,4.424
	c1.093,1.329,2.921,1.903,4.42,2.651c3.032,1.518,6.06,3.275,9.228,4.424c1.591,0.577,3.022,1.416,4.574,2.113
	c2.275,1.023,3.937,0.525,6.192,0.924c0.847,0.149,1.448,0.688,2.289,0.848c0.858,0.164,2.057-0.036,2.925-0.039
	c1.863-0.006,3.733,0.049,5.598-0.003c4.274-0.118,7.148-2.558,10.552-4.804c6.76-4.463,14.05-11.834,14.017-20.317
	c-0.02-4.569,0.678-9.744-0.923-14.116c-0.718-1.959-2.349-3.699-3.518-5.402c-0.806-1.178-1.255-2.211-2.293-3.23
	c-4.388-4.311-9.395-7.277-14.034-11.346c-2.488-2.183-5.194-3.344-8.456-3.889c-0.726-0.121-1.406,0.021-2.14-0.128
	c-0.5-0.103-0.974-0.521-1.691-0.614c-1.507-0.199-3.908-0.285-5.399-0.023c-0.857,0.15-1.453,0.697-2.308,0.848
	c-0.934,0.165-2.123-0.035-3.077-0.039c-2.091-0.008-3.529-0.271-3.845,2.307"/>
</svg>
