<?xml version="1.0" encoding="utf-8"?>
<!-- Generator: Adobe Illustrator 15.0.2, SVG Export Plug-In  -->
<!DOCTYPE svg PUBLIC "-//W3C//DTD SVG 1.1//EN" "http://www.w3.org/Graphics/SVG/1.1/DTD/svg11.dtd" [
	<!ENTITY ns_flows "http://ns.adobe.com/Flows/1.0/">
]>
<svg version="1.1"
	 xmlns="http://www.w3.org/2000/svg" xmlns:xlink="http://www.w3.org/1999/xlink" xmlns:a="http://ns.adobe.com/AdobeSVGViewerExtensions/3.0/"
	 x="0px" y="0px" width="263px" height="388px" viewBox="0 0 263 388" overflow="visible" enable-background="new 0 0 263 388"
	 xml:space="preserve">
<defs>
</defs>
<path fill="#3F5CA2" d="M197.533,383.427c-1.092-2.41-0.691-4.242-1.201-6.66c-0.139-0.655-0.664-1.23-0.787-2.161
	c-0.121-0.927,0.02-2.031,0.023-2.971c0.016-4.54,0.542-9.466,0.051-13.976c-0.262-2.4-1.049-4.176-1.033-6.66
	c0.011-1.966,0-3.932,0-5.896c0-4.594,0-9.188,0-13.781c0-2.211-0.031-4.426-0.004-6.637c0.028-2.27-0.774-3.898-1.002-6.07
	c-0.276-2.633-0.002-5.459,0.019-8.117c0.024-3.049-0.999-5.374-0.976-8.422c0.044-5.571,0.254-11.033-0.768-16.48
	c-1.146-6.111-0.218-12.9-0.218-19.131c0-3.902-0.452-8.139,0.222-11.965c0.878-4.984,2.296-9.586,3.712-14.326
	c0.604-2.023,1.542-3.865,2.203-5.896c0.517-1.584,1.117-3.459,1.972-5.131c0.85-1.666,1.926-3.262,2.701-4.863
	c0.469-0.971,0.599-2.029,1.201-2.998c0.538-0.646,1.056-1.31,1.553-1.989c0.113-0.589,0.252-1.173,0.416-1.75
	c3.147-4.088,8.015-7.175,11.592-10.999c0.965-1.029,3.073-2.848,3.713-4.11c0.579-1.144,0.018-2.544,0.145-3.757
	c0.22-2.07,1.275-3.068,1.824-4.907c2.266-7.581,1.176-16.57,1.176-24.569c0-6.227,0.487-12.646,0.051-18.844
	c-0.158-2.244-0.99-4.213-1.057-6.485c-0.066-2.286,0.023-4.595,0.023-6.882c0-4.061,0-8.119,0-12.179c0-10.198,0-20.396,0-30.595
	c0-1.988,0.172-4.072,0.051-6.057c-0.164-2.652-1.055-4.674-1.03-7.379c0.046-5.162-0.003-10.328-0.003-15.49
	c0-13.516,0-27.03,0-40.547c0-5.893,0.088-11.794,0.003-17.688c-0.045-3.064,0.523-6.283,3.931-6.926
	c3.049-0.575,5.799,0.895,8.695,1.176c0.195,2.023,1.042,3.744,1.15,5.75c0.105,1.947-0.021,3.945-0.021,5.896
	c0,4.088-0.6,8.753,0.218,12.73c1.901,9.25,0.765,19.9,0.765,29.525c0,3.932,0.001,7.863,0,11.795
	c-0.002,5.413-0.982,10.311-0.982,15.742c0,9.164,0,18.328,0,27.492c0,5.242,0.047,10.485,0.002,15.727
	c-0.023,2.886,0.867,5.288,1.002,8.101c0.169,3.499-0.021,7.063-0.021,10.567c0,12.775,0,25.551,0,38.325
	c0,1.965,0.014,3.931,0,5.896c-0.016,2.199,0.475,3.024,1.014,4.863c0.554,1.893,1.064,3.935,2.151,5.729
	c0.979,1.613,2.486,3.58,3.909,4.862c3.425,3.089,7.011,6.196,9.631,10.073c2.473,3.658,3.82,7.689,5.154,11.814
	c0.64,1.979,0.54,3.684,0.96,5.678c0.138,0.654,0.665,1.234,0.787,2.162c0.122,0.926-0.02,2.031-0.022,2.971
	c-0.008,1.949-0.131,3.951-0.023,5.896c0.148,2.688,1.051,4.969,1.009,7.832c-0.04,2.809,0.925,4.949,1.003,7.672
	c0.068,2.43-0.023,4.883-0.023,7.315c0,5.479,0,10.958,0,16.437c0,2.521,0.394,5.361,0.051,7.857
	c-0.377,2.746-1.045,4.816-1.033,7.652c0.025,5.984,0,11.969,0,17.953c0,3.93-0.055,7.863-0.004,11.791
	c0.029,2.195-0.887,3.781-1.002,5.896c-0.123,2.271,0.023,4.602,0.023,6.879c0,8.443,0,16.887,0,25.331c0,4.005,0,8.007,0,12.012
	c0,1.964-0.01,3.931,0,5.896c0.015,3.123,0.468,3.989-2.929,3.928c-17.01-0.309-34.056,0.002-51.068,0.002
	c-1.663,0-3.325,0.002-4.987,0c-1.217,0-3.892,0.535-4.961,0.07c-1.873-0.812-0.912-6.848-0.912-8.913"/>
<path fill="#F5E253" d="M187.707,265.505c2.948,0,5.896,0.016,8.844,0c3.256-0.02,5.487,0.995,8.845,0.982
	c3.275-0.012,6.551,0.002,9.826,0c1.77-0.001,3.966,0.371,5.681,0.051c2.142-0.401,3.682-1.688,6.014-0.878
	c0.382,1.94,0.469,3.923,0.865,5.908c0.392,1.956,0.151,3.896,0.432,5.86c0.177,1.25,0.738,1.752,0.789,3.254
	c0.184,5.438-0.022,10.926-0.022,16.369c0,3.369,0.631,7.408,0.052,10.709c-0.383,2.173-1.056,3.567-1.035,5.896
	c0.021,2.274-0.215,3.788-0.764,5.896c-0.414,1.592-0.217,3.268-0.219,4.914c-0.001,1.476,0.636,4.664,0.07,5.966
	c-1.153,2.655-8.783,0.128-11.098-0.284c-7.561-1.354-15.604-0.77-23.365-0.77"/>
<path fill="#FFFFFF" d="M79.611,346.1c0-4.359,0.281-8.662-0.764-12.775c-0.532-2.096-0.852-4.471-1.23-6.637
	c-0.483-2.77-1.036-5.355-1.937-8.052c-1.456-4.364-2.782-8.62-4.644-12.829c-1.895-4.283-3.89-8.902-6.388-12.699
	c-3.013-4.58-5.202-9.561-8.358-14.051c-4.124-5.869-8.755-11.581-14.015-16.504c-3.062-2.865-6.649-4.931-9.589-7.843
	c-1.526-1.513-2.602-3.263-4.2-4.718c-1.386-1.262-2.879-2.493-4.179-3.857c-2.71-2.844-4.973-6.18-7.589-9.117
	c-1.47-1.65-2.286-3.522-3.688-5.176c-1.09-1.287-2.476-2.246-3.435-3.64c-2.71-3.942-4.47-7.134-5.897-11.843
	c-1.813-5.979-3.717-11.686-3.686-18.049c0.04-8.078-0.333-16.289,1.175-24.203c0.602-3.158,1.583-6.168,1.965-9.42
	c0.254-2.158,0.715-4.365,1.526-6.377c0.656-1.624,0.87-3.242,1.449-4.868c1.555-4.368,3.833-8.567,5.946-12.725
	c1.133-2.229,1.428-4.634,2.409-6.875c0.993-2.267,2.146-4.772,3.437-6.882c2.004-3.282,4.736-7.401,7.864-9.581
	c3.345-2.33,7.018-3.864,10.565-5.132c4.118-1.471,8.615-1.939,12.797-2.948c4.895-1.179,9.173-3.172,13.041-6.66
	c2.441-2.202,4.392-5.319,5.411-8.326c1.359-4.005,1.184-8.104,1.202-12.557c0.008-1.955,0.528-4.518-0.644-6.185
	c-1.431-2.039-5.029-2.053-7.218-2.66c-2.405-0.665-4.395-1.016-6.878-0.982c-2.419,0.031-3.8,0.334-4.938-1.939
	c-0.076-0.152-0.636-1.969-0.716-2.21c-0.29-0.872-0.793-1.876-1.002-2.732c-0.354-1.455-0.718-4.478-0.27-5.94
	c0.872-2.844,5.268-4.059,7.668-5.107c3.118-1.359,7.439-0.741,11.028-0.741c4.92,0,9.842,0,14.763,0
	c3.031,0,6.437,0.431,9.417,0.052c2.562-0.328,4.615-1.055,7.285-1.035c4.897,0.038,9.796,0,14.693,0
	c2.683,0,5.496-0.289,8.127,0.22c2.091,0.403,4.66,0.358,6.664,0.96c4.978,1.494,9.321,7.287,7.665,12.602
	c-1.645,5.273-5.122,5.721-9.659,7.596c-2.421,1-5.032,2.45-7.612,2.995c-1.076,0.228-2.206-0.085-3.217,0.142
	c-1.186,0.266-1.531,0.883-2.877,1.06c-1.903,0.251-3.851-0.353-5.697,0.199c-0.886,0.265-3.135,1.39-3.934,1.962
	c-1.615,1.158-1.618,2.102-2.156,3.689c-0.688,2.03-1.757,3.895-2.016,5.896c-0.403,3.111-0.728,8.381,1.201,10.804
	c2.162,2.717,5.483,5.247,8.388,7.128c4.736,3.068,9.395,4.148,14.76,5.676c2.927,0.833,5.741,1.967,8.651,2.76
	c1.618,0.441,2.225,0.517,3.812,1.166c2.197,0.902,3.722,0.686,5.896,1.155c2.843,0.612,6.356,2.845,8.902,4.226
	c2.142,1.162,5.424,2.863,7.155,4.67c0.835,0.871,1.05,1.76,2.11,2.514c1.254,0.892,2.777,1.098,4.056,2.158
	c2.369,1.963,4.325,4.467,6.063,6.9c1.516,2.123,3.473,3.738,4.937,5.896c1.317,1.945,2.273,3.852,3.42,5.896
	c2.406,4.293,4.721,8.866,5.944,13.707c0.348,1.379-0.109,2.709,0.166,4.031c0.222,1.061,0.881,1.812,1.089,2.875
	c0.448,2.31,0.042,5.488-0.028,7.857c-0.195,6.514-2.577,12.753-3.709,19.186c-1.11,6.312-3.146,11.977-5.602,17.885
	c-1.816,4.371-5.188,7.428-7.656,11.347c-1.793,2.847-4.004,6.392-6.593,8.606c-7.821,6.686-16.029,12.922-23.706,19.672
	c-2.576,2.267-4.726,4.662-7.467,6.736c-2.602,1.967-4.303,4.689-6.481,7.049c-1.47,1.592-3.52,3.038-4.719,4.895
	c-1.796,2.779-2.217,6.352-3.287,9.498c-0.719,2.109-2.171,3.857-2.857,6c-0.613,1.913-0.93,3.948-1.402,5.898
	c-0.667,2.751-0.916,5.283-1.447,8.012c-0.818,4.203-1.772,8.52-1.743,12.922c0.014,2.162,0.223,4.481-0.223,6.559
	c-0.142,0.664-0.663,1.223-0.787,2.161c-0.164,1.251,0.025,2.687,0.023,3.954c-0.001,0.971,0.075,1.979,0.022,2.947
	c-0.082,1.527-0.8,2.472-1.056,3.931c-0.397,2.255,1.016,5.87,0.121,7.933c-0.734,1.688-4.208,0.922-5.966,0.912
	c-2.418-0.014-3.724,0.723-5.873,1.006c-2.202,0.289-4.675-0.028-6.901-0.023c-1.207,0.003-2.755,0.277-3.931,0.055
	c-1.393-0.264-2.826-1.988-3.932-0.055"/>
<path fill="#32B458" d="M33.425,112.221c0.198,0.247,0.397,0.494,0.596,0.74c-2.235,3.123-3.308,6.298-3.517,10.072
	c-0.204,3.664-3.062,8.513,0.909,11.049c3.497,2.234,7.053,3.192,9.871,6.395c1.273,1.447,2.65,3.064,2.999,5.154
	c0.326,1.957-0.329,3.939,0.171,5.896c1.06,4.15,2.835,7.279,5.432,10.833c1.006,1.376,1.979,2.437,2.92,3.862
	c1.504,2.279,2.336,4.781,3.985,6.971c1.906,2.531,4.863,5.943,8.154,2.705c0.943-0.927,0.492-1.503,1.096-2.486
	c0.778-1.264,1.536-1.622,1.852-3.244c0.341-1.754,0.331-5.252-0.27-6.893c-0.773-2.117-2.109-2.859-2.556-5.369
	c-0.47-2.641-0.195-5.445-0.195-8.125c0-3.412,1.035-8.799-0.171-12.012c-0.646-1.723-2.651-3.523-3.784-4.936
	c-1.524-1.898-1.601-2.643-2.156-4.895c-0.657-2.663-0.748-3.378-0.026-6.114c0.657-2.491,1.813-5.149,2.254-7.662
	c0.249-1.421,0.093-3.519-0.266-4.892c-0.36-1.377-0.447-4.243-1.455-5.198c-1.812-1.716-4.825,1.731-6.384,2.987
	c-1.539,1.239-2.947,1.029-4.717,1.447c-2.046,0.483-3.747,1.651-5.896,1.77c-1.943,0.107-3.947-0.012-5.896-0.022
	c-2.266-0.013-3.775,0.712-5.896,0.983"/>
<path fill="#32B458" d="M1.979,218.35c0.096-5.131,1.753-11.375,4.67-15.77c1.273-1.918,3.328-2.906,5.18-4.156
	c2.071-1.398,4.048-3.223,5.182-5.62c1.215-2.57,1.28-4.116,1.619-6.886c0.44-3.592,2.157-6.826,4.28-9.706
	c1.48-2.009,3.363-3.123,5.623-4.295c1.048-0.542,1.348-1.178,2.162-1.745c1.186-0.822,2.176-1.012,3.564-1.568
	c0.713,2.365,0.528,7.041-0.074,9.457c-0.41,1.643-1.505,3.225-1.794,4.914c-0.368,2.15,0.34,3.951,0.818,5.892
	c0.366,1.487,0.877,2.509,1.248,3.833c0.541,1.929-0.048,4.918-0.051,6.98c-0.001,1.721,0.165,3.443-0.195,5.132
	c-0.509,2.386-2.407,4.3-2.8,6.66c-0.261,1.575,0.047,3.527,0.047,5.132c0,1.665-0.44,4.104-0.051,5.729
	c0.378,1.574,1.058,1.973,1.03,3.891c-0.039,2.703-0.007,5.411,0.003,8.115c-0.013,0.92-0.006,1.838,0.022,2.757
	c-0.141,0.766-0.669,1.564-0.786,2.11c-0.208,0.969-0.073,1.777-0.192,2.756c-0.117,0.942-0.655,1.5-0.791,2.158
	c-0.35,1.694-0.938,7.047-2.922,7.567c-0.778-3.776-4.006-6.315-6.854-8.747c-1.756-1.498-2.663-3.166-4.2-4.74
	c-1.416-1.449-2.97-2.151-4.196-3.91c-1.65-2.365-2.345-5.19-4.382-7.364c-1.289-1.376-2.639-1.81-3.507-3.665
	c-0.941-2.015-1.053-4.169-2.656-5.893"/>
<path fill="#32B458" d="M56.027,201.645c1.396,1.861-0.614,4.951-1.221,6.904c-0.694,2.235-1.034,4.371-0.792,6.822
	c0.257,2.602,1.545,3.977,3.24,5.686c1.6,1.613,2.459,3.043,3.468,5.178c0.555,1.176,0.696,2.8,1.372,3.883
	c1.505,2.407,3.445,2.848,5.776,3.956c3.354,1.595,6.264,5.052,9.012,7.592c2.908,2.688,5.769,4.579,9.564,5.948
	c4.31,1.553,11.021,0.404,12.62,6.117c0.472,1.688-0.407,3.598,1.38,4.711c1.274,0.793,4.218,0.199,5.697,0.199
	c1.896,0,4.462,0.523,6.162-0.371c2.896-1.523,2.265-4.995,2.898-7.514c0.444-1.766,0.565-2.929,0.716-4.789
	c0.212-2.604,2.263-5.875,0.447-8.256c-1.292-1.693-2.757-1.16-4.348-1.859c-1.249-0.549-2.292-1.57-3.215-2.546
	c-1.062-1.122-2.372-2.477-2.714-4.095c-0.416-1.964-0.161-2.851-1.201-4.742c-0.723-1.314-1.307-2.307-2.432-3.413
	c-2.489-2.448-3.666-4.417-4.912-7.646c-1.245-3.224-3.065-3.871-6.118-5.128c-4.168-1.718-9.231-1.724-13.777-1.724
	c-1.86-0.001-4.076,0.349-5.899,0.047c-2.187-0.361-3.603-1.924-5.896-2.036c-4.01-0.195-8.37-0.663-11.625,1.634
	c-0.056-0.209-0.112-0.418-0.167-0.629"/>
<path fill="#32B458" d="M94.352,115.168c-2.632-0.873-1.685,1.554-1.911,2.951c-0.282,1.732-1.518,2.998-1.104,4.907
	c0.923,4.261,6.501,3.478,7.729,7.864c0.54,1.93,0.085,3.71,0.893,5.678c0.976,2.377,2.527,2.912,4.242,4.588
	c1.684,1.643,1.738,3.642,3.885,4.764c1.977,1.034,3.789,0.555,5.919,0.672c3.415,0.188,6.525,1.924,9.827,2.748
	c1.762,0.44,3.857,0.326,5.677,0.242c2.539-0.118,3.848-1.619,6.116-2.721c6.301-3.064,12.248-9.165,13.972-15.755
	c0.345-1.315,1.128-2.391,0.819-4.146c-0.246-1.393-0.969-3.098-1.748-4.197c-0.814-1.151-1.758-1.438-2.975-1.94
	c-1.232-0.509-2.795-1.482-4.119-1.778c-0.691,0.036-1.382,0.072-2.072,0.107c-0.893-0.206-0.967-0.883-1.858-1.09
	c-0.866-0.201-1.883,0.015-2.782-0.165c-0.494-0.098-1.463-0.628-2.162-0.765c-1.859-0.361-3.135-1.225-4.937-1.77
	c-0.946-0.285-4.997-0.799-5.748-0.047c-0.808,0.81,0.002,3.92-0.102,4.98c-0.246,2.525-0.936,3.291-2.95,4.447
	c-1.794,1.031-3.901,1.617-5.986,1.25c-2.16-0.383-2.86-1.938-4.895-2.961c-1.625-0.818-1.827-1.722-3.095-2.948
	c-1.615-1.562-3.965-1.378-5.469-3.147c-1.065-1.252-0.756-3.215-2.146-3.805c-1.948-0.828-4.311,1.26-5.97-0.912"/>
<path fill="#32B458" d="M127.763,181.992c0.009,4.495,3.537,7.925,5.183,11.796c0.971,2.281,1.643,4.381,1.693,6.852
	c0.055,2.746-0.34,7.313,2.906,8.723c2.229,0.968,5.492,0.661,7.906,1.323c3.369,0.925,4.451,3.879,6.143,6.465
	c1.396,2.133,3.635,3.632,4.936,5.845c0.911,1.549,1.369,2.916,2.654,4.25c0.93,0.965,2.479,1.579,3.266,2.626
	c1.239,1.649,1.742,3.642,3.904,1.303c1.186-1.283,2.033-3.435,2.929-4.934c0.968-1.62,2.824-3.487,3.491-5.155
	c0.887-2.215,0.828-4.32,1.398-6.664c0.498-2.054,2.01-4.239,2.503-6.115c0.606-2.301,0.401-4.488,1.177-6.638
	c0.786-2.175,1.645-4.634,2.045-6.901c0.418-2.374-0.209-5.066,0.021-7.49c-1.51,1.382-4.053,1.832-5.973,2.361
	c-3.204,0.885-6.666,1.158-9.896,2.209c-2.179,0.709-4.477,1.033-6.806,1.938c-1.272,0.494-2.55,1.109-3.953,1.028
	c-1.905-0.112-1.777-0.76-3.145-1.792c-1.55-1.172-4.212-1.247-5.702-2.379c-1.938-1.473-2.158-4.031-3.881-5.727
	c-1.047-1.03-3.524-3.536-4.891-3.953c-1.984-0.605-6.406-0.48-6.926,2.014"/>
<path fill="#32B458" d="M109.091,296.965c-3.39-1.537-4.552-0.659-7.81,0.051c-2.392,0.521-5.642-0.051-8.132-0.051
	c-2.65,0-6.083-0.598-8.643-0.07c-3.999,0.826-3.228,3.842-0.746,5.697c2.194,1.641,3.078,3.244,5.682,4.196
	c2.443,0.894,5.492,0.691,7.141,2.905c1.478,1.983,1.634,4.657,3.64,6.209c1.951,1.51,4.217,4.2,6.625,4.721
	c-0.235-0.025-0.469-0.049-0.705-0.073"/>
<path fill="#32B458" d="M82.56,53.259c2.017-3.532,5.193,3.493,6.117,4.859c1.921,2.837,3.775,4.32,6.658,5.947
	c2.48,1.397,4.122,2.487,6.139,4.671c0.785,0.848,1.692,1.591,2.458,2.458c1.384,1.565,0.706,1.823,1.179,3.737
	c0.77,3.112,5.252,3.729,7.959,2.941c3.043-0.885,1.909-5.474,1.918-7.908c0.013-3.564-0.917-5.562-1.748-8.845
	c-0.831-3.29-0.218-7.397-0.218-10.81"/>
</svg>
