<?xml version="1.0" encoding="utf-8"?>
<!-- Generator: Adobe Illustrator 15.0.2, SVG Export Plug-In  -->
<!DOCTYPE svg PUBLIC "-//W3C//DTD SVG 1.1//EN" "http://www.w3.org/Graphics/SVG/1.1/DTD/svg11.dtd" [
	<!ENTITY ns_flows "http://ns.adobe.com/Flows/1.0/">
]>
<svg version="1.1"
	 xmlns="http://www.w3.org/2000/svg" xmlns:xlink="http://www.w3.org/1999/xlink" xmlns:a="http://ns.adobe.com/AdobeSVGViewerExtensions/3.0/"
	 x="0px" y="0px" width="247px" height="66px" viewBox="0 0 247 66" overflow="visible" enable-background="new 0 0 247 66"
	 xml:space="preserve">
<defs>
</defs>
<path fill="#634092" d="M113.433,43.977c-2.249-2.27-4.417-4.812-6.856-6.878c-2.381-2.019-4.92-3.632-7.145-5.871
	c-2.136-2.151-4.999-5.683-5.677-8.626c-0.412-1.787-0.997-3.169-1.225-4.891c-0.248-1.884,0.022-4.014,0.022-5.919
	c0-3.931,0-7.862,0-11.792L66.021,0.982c-1.938,2.643-3.079,6.213-5.871,8.104c-1.705,1.154-3.015,2.493-4.695,3.713
	c-1.975,1.433-3.741,2.149-5.897,3.146c-2.16,0.996-4.058,2.137-6.354,2.912c-1.379,0.468-2.262,1.537-3.684,1.855
	c-1.22,0.273-2.513-0.175-3.798,0.145c-1.791,0.447-3.895,1.413-5.982,1.715c-3.798,0.552-7.274,1.969-10.987,2.785
	c-3.568,0.785-7.012,1.49-10.711,2.373c-1.694,0.404-3.3,1.457-4.859,1.805c-0.777,0.173-2.181-0.57-2.854,0.094
	c-0.494,0.488-0.317,3.134-0.199,3.781c0.394,2.16,1.053,3.537,1.034,5.847c-0.02,2.31,0,4.619,0,6.929
	c0,4.586,0.031,9.172,0,13.758c-0.038,5.384,2.08,4.914,6.878,4.914c4.594,0,9.189,0,13.784,0c4.306,0,8.611,0,12.917,0
	c2.547,0,5.096,0.01,7.643,0c3.208-0.014,5.836,0.875,8.949,1.005C56.549,66.08,61.84,65.84,67.06,65.84c2.746,0,5.49,0.002,8.236,0
	c1.295-0.002,3.229,0.316,4.528,0.051c1.446-0.297,2.365-0.975,3.885-1.057c1.892-0.102,4.039,0.4,5.896,0.074
	c2.172-0.383,3.572-1.045,5.896-1.034c2.274,0.012,3.788-0.215,5.896-0.764c1.049-0.273,1.868-0.247,2.948-0.219
	c1.661,0.044,2.375-0.376,3.877-0.767c0.928-0.275,1.873-0.338,2.834-0.188c0.963-0.273,1.173-0.872,2.079-1.062
	c1.718-0.359,4.438,0.809,6.02,0.121c2.074-0.901,1.014-8.394,0.196-10.111C117.967,47.978,115.639,46.207,113.433,43.977z"/>
<path fill="#634092" d="M182.961,41.998c-1.767-2.001-4.445,2.101-5.627,3.194c-2.817,2.611-5.447,5.701-8.153,8.595
	c-3.293,3.52-7.743,7.491-9.707,11.597c3.367,1.027,8.149,0.199,11.694,0.199c3.932,0,7.862,0,11.793,0c9.105,0,18.213,0,27.318,0
	c3.996,0,7.992,0.004,11.988,0c2.322-0.002,3.938,0.281,5.92-0.96c1.768-1.106,2.576-2.376,3.859-3.931
	c1.475-1.785,3.32-3.568,4.91-5.152c1.424-1.414,3.443-2.355,4.718-3.906c2.198-2.674,3.69-5.645,5.161-8.652L182.961,41.998z"/>
</svg>
