<?xml version="1.0" encoding="utf-8"?>
<!-- Generator: Adobe Illustrator 15.0.2, SVG Export Plug-In  -->
<!DOCTYPE svg PUBLIC "-//W3C//DTD SVG 1.1//EN" "http://www.w3.org/Graphics/SVG/1.1/DTD/svg11.dtd" [
	<!ENTITY ns_flows "http://ns.adobe.com/Flows/1.0/">
]>
<svg version="1.1"
	 xmlns="http://www.w3.org/2000/svg" xmlns:xlink="http://www.w3.org/1999/xlink" xmlns:a="http://ns.adobe.com/AdobeSVGViewerExtensions/3.0/"
	 x="0px" y="0px" width="13px" height="18px" viewBox="0 0 13 18" overflow="visible" enable-background="new 0 0 13 18"
	 xml:space="preserve">
<defs>
</defs>
<path fill="#F04F52" d="M0,1.154c0,4.581,0.093,9.173,0.003,13.754c-0.066,3.411,0.791,2.966,3.927,2.951
	c1.991-0.009,6.166,0.838,7.932,0.07c1.66-0.722,1.039-4.13,0.694-5.748c-0.229-1.071-0.782-1.704-0.761-3.169
	c0.019-1.309-0.006-2.619-0.004-3.928c0.003-0.936,0.148-2.046,0.02-2.968c-0.283-2.022,0.059-1.683-1.965-1.966
	C7.344-0.2,4.499,0.17,1.965,0.17"/>
</svg>
