<?xml version="1.0" encoding="utf-8"?>
<!-- Generator: Adobe Illustrator 15.0.2, SVG Export Plug-In  -->
<!DOCTYPE svg PUBLIC "-//W3C//DTD SVG 1.1//EN" "http://www.w3.org/Graphics/SVG/1.1/DTD/svg11.dtd" [
	<!ENTITY ns_flows "http://ns.adobe.com/Flows/1.0/">
]>
<svg version="1.1"
	 xmlns="http://www.w3.org/2000/svg" xmlns:xlink="http://www.w3.org/1999/xlink" xmlns:a="http://ns.adobe.com/AdobeSVGViewerExtensions/3.0/"
	 x="0px" y="0px" width="114px" height="88px" viewBox="0 0 114 88" overflow="visible" enable-background="new 0 0 114 88"
	 xml:space="preserve">
<defs>
</defs>
<path fill="#F05053" d="M45.829,2.293c0.416-1.798,1.055-1.224,2.129-1.509c0.378-0.101,1.248-0.51,1.515-0.57
	c1.599-0.365,3.322-0.149,4.969-0.164c4.624-0.041,8.845,2.162,13.085,3.926c3.283,1.367,5.889,3.43,7.732,6.594
	c0.811,1.392,1.848,2.557,2.778,3.868c1.056,1.487,1.743,3.683,2.979,4.907c2.344,2.321,5.441,3.844,8.645,3.891
	c2.051,0.029,3.49,1.203,5.496,1.538c2.174,0.362,3.506,1.657,5.5,2.804c2.177,1.252,4.285,2.688,6.422,4.098
	c2.549,1.682,5.141,2.946,5.706,6.553c0.224,1.436-0.392,3.121-0.07,4.53c0.29,1.281,1.194,2.124,0.774,3.743
	c-0.83,3.203-4.967,5.172-6.372,8.158c-0.856,1.818-0.711,2.246,0.175,3.76c0.656,1.123,1.223,1.894,2.111,2.831
	c0.654,0.69,1.617,1.422,2.13,2.228c0.841,1.328,0.504,3.064,0.515,4.695c0.016,3.347-1.049,4.216-2.996,6.535
	c-2.236,2.66-4.691,4.982-7.043,7.504c-1.729,1.854-3.039,3.885-5.459,4.508c-2.948,0.757-6.662,0.17-9.707,0.17
	c-6.123,0-12.359-0.37-18.473-0.018c-1.565,0.09-2.732,0.785-4.366,0.763c-2.013-0.028-4.028,0.003-6.042,0.003
	c-3.605,0-7.07,0.08-10.568-0.585c-3.371-0.642-6.066-1.886-9.313-2.995c-4.077-1.393-8.063-3.1-11.819-5.426
	c-2.406-1.49-5.768-4.414-6.53-7.426c-0.319-1.264,0.034-3.205,0.034-4.529c0-1.496-0.443-3.871-0.034-5.277
	c0.292-1.001,1.437-2.024,1.971-2.98c0.56-1.004,1.054-1.914,1.763-2.785c1.896-2.328,4.026-4.309,3.379-7.674
	c-0.562-2.934-2.627-3.973-4.102-6.156c-0.289-0.424-0.385-1.079-0.67-1.538c-0.273-0.438-0.771-0.82-1.072-1.271
	c-0.975-1.459-1.592-2.99-2.485-4.512c-6.368-10.838,4.905-22.926,13.384-27.531c1.273-0.692,2.82-0.774,4.105-1.457
	c1.123-0.596,2.223-1.455,3.447-1.746c1.236-0.293,2.437-0.151,3.582-0.686c1.499-0.701,2.44-0.748,4.207-0.771"/>
<path fill="#32B559" d="M30.333,44.217c-0.312,0.414-1.819,1.21-2.271,1.327c-0.389,0.246-0.805,0.303-1.252,0.17
	c-0.252,0.092-1.35,0.527-1.563,0.584c-1.952,0.529-3.329,0.918-5.481,0.913c-2.348-0.005-3.723,0.122-5.652-1.312
	c-1.399-1.041-2.504-2.575-3.348-4.113C9.858,40.14,8.17,37.79,7.736,35.981c-0.208-0.87,0.438-2.23,0.104-3.047
	c-0.452-1.104-1.784-0.783-2.868-0.714c-1.088,0.069-1.775,0.628-2.816,0.808c-1.568,0.27-2.002-0.598-2.145,1.441
	c-0.143,2.055,1.23,4.352,2.141,6.003c0.834,1.515,1.02,3.116,1.904,4.661c1.203,2.1,2.625,3.666,4.281,5.277
	c1.243,1.208,2.125,2.073,3.644,2.789c0.956,0.451,1.843,0.629,2.854,0.748c1.245,0.149,2.263,0.694,3.522,0.767
	c4.126,0.237,8.196,0.021,11.973-0.935c1.856-0.471,3.504-1.91,3.596-4.118c0.096-2.357-2.561-3.546-2.889-5.445"/>
</svg>
