<?xml version="1.0" encoding="utf-8"?>
<!-- Generator: Adobe Illustrator 15.0.2, SVG Export Plug-In  -->
<!DOCTYPE svg PUBLIC "-//W3C//DTD SVG 1.1//EN" "http://www.w3.org/Graphics/SVG/1.1/DTD/svg11.dtd" [
	<!ENTITY ns_flows "http://ns.adobe.com/Flows/1.0/">
]>
<svg version="1.1"
	 xmlns="http://www.w3.org/2000/svg" xmlns:xlink="http://www.w3.org/1999/xlink" xmlns:a="http://ns.adobe.com/AdobeSVGViewerExtensions/3.0/"
	 x="0px" y="0px" width="255px" height="341px" viewBox="0 0 255 341" overflow="visible" enable-background="new 0 0 255 341"
	 xml:space="preserve">
<defs>
</defs>
<rect fill="#32B559" width="254.666" height="197.978"/>
<path fill="#FFFFFF" d="M17.789,107.612c-0.164,0.062-0.328,0.123-0.492,0.184c0.848,0.935,3.06,0.75,4.275,1.313
	c1.275,0.592,2.119,0.635,3.537,0.915c0.121,0.024,1.42,0.5,1.607,0.561c0.994,0.322,2.097,0.441,3.088,0.77
	c1.513,0.503,3.044,0.998,4.438,1.664c2.783,1.332,4.82,1.896,6.736,4.309c2.447,3.08,2.925,6.24,4.508,9.785
	c2.65,5.939,1.588,12.837,2.83,19.262c0.737,3.812,0.166,8.246,0.166,12.124c0,4.854,0,9.708,0,14.562
	c0,2.607-0.506,5.946-0.037,8.52c0.406,2.234,0.795,3.978,0.785,6.322c-0.018,5.178,0,10.355,0,15.533c0,8.473,0,16.945,0,25.418
	c0,8.678,0,17.357,0,26.035c0,3.562,0.023,7.125,0,10.687c-0.021,3.832,1.641,7.719,2.996,11.287
	c1.069,2.813,3.588,4.854,5.99,6.493c3.079,2.104,6.278,4.133,9.73,5.633c2.932,1.271,5.992,2.414,8.984,3.535
	c1.461,0.548,3.01,0.978,4.49,1.336c2.652,0.644,3.05,0.481,3.012,3.723c-0.053,4.63,0.732,9.07,0.732,13.718
	c0,4.401,0,8.802,0,13.202c0,3.811,0.078,7.631,0.002,11.441c-0.045,2.335,0.191,2.115,2.375,2.416
	c2.618,0.361,4.855,1.357,7.524,1.328c2.487-0.028,4.976,0.014,7.464,0.005c2.793-0.011,5.192,0.665,7.903,0.763
	c5.919,0.217,11.692,0.732,17.633,0.732c2.808,0,5.614,0.021,8.422,0.002c2.661-0.018,5.046,0.729,7.692,0.764
	c5.207,0.066,10.424-0.018,15.635-0.018c9.693,0,19.387,0,29.083,0c2.104,0,4.21-0.01,6.317,0c2.242,0.012,3.861-0.297,5.943-0.787
	c0.956-0.224,2.099,0.167,3.078,0.056c0.901-0.103,1.357-0.376,2.207-0.599c1.405-0.37,3.916,0.52,4.543-0.863
	c0.59-1.305-0.746-3.232-0.818-4.544c-0.08-1.482,0.018-3.005,0.018-4.492c0-3.493,0-6.985,0-10.479c0-2.994-0.018-5.99,0-8.986
	c0.014-1.924-0.588-3.415-0.785-5.278c-0.225-2.114,1.119-3.438,2.078-5.201c1.588-2.924,4.349-5.298,6.193-8.03
	c2.312-3.423,4.469-7.082,6.572-10.669c0.992-1.691,1.697-3.64,2.6-5.384c1.014-1.958,1.923-4.165,2.807-6.199
	c1.878-4.314,2.84-9.298,2.997-13.927c0.071-2.124,0.722-4.017,0.765-6.183c0.049-2.565-0.273-5.211-0.058-7.763
	c0.167-1.973,0.776-3.714,0.827-5.751c0.033-1.353-0.123-2.708-0.078-4.059c0.078-2.331,0.699-4.601,0.826-6.927
	c0.17-3.087-0.039-6.24-0.039-9.334c0-5.67,0-11.338,0-17.008c0-3.189,0.004-6.378,0-9.566c0-1.498,0.018-2.996,0.019-4.494
	c0.001-2.275-0.708-4.328-0.806-6.586c-0.119-2.783,0.037-5.622,0.039-8.409c0.004-3.177-0.484-6.057-0.788-9.18
	c-0.237-2.454,0.335-5.004,0.077-7.454c-0.326-3.117-0.825-6.305-1.369-9.354c-0.411-2.312-0.534-4.625-0.955-6.96
	c-0.306-1.684-0.551-3.502-0.709-5.229c-0.176-1.975-0.645-3.701-0.706-5.717c-0.048-1.534-0.62-2.562-0.829-3.99
	c-0.214-1.453,0.082-3.08,0.037-4.557c-0.116-3.747-1.017-7.672-1.664-11.336c-0.371-2.101-1.41-3.9-2.098-5.863
	c-0.854-2.445-2.049-4.457-3.688-6.492c-3.038-3.77-6.156-5.529-10.515-7.108c-3.389-1.228-5.963-2.587-9.75-2.097
	c-5.566,0.721-11.115,5.688-14.039,10.502c-1.404,2.308-2.985,5.172-3.744,7.648c-0.425,1.382-0.698,2.846-1.1,4.287
	c-0.301,1.085-0.389,1.986-0.564,3.072c-0.17,1.039-0.605,1.92-0.787,2.955c-0.24,1.371,0.03,3.092,0.037,4.492
	c0.013,1.949-0.562,3.347-0.786,5.244c-0.232,1.976,0.038,4.174,0.038,6.17c0,2.371-0.168,4.316-0.582,6.593
	c-0.641,3.525-0.19,7.632-0.166,11.231c0.014,2.183-0.438,3.873-0.787,5.945c-0.33,1.957,0.039,4.324,0.039,6.33
	c0,2.373,0.146,4.798,0.018,7.164c-0.1,1.805-0.734,3.389-0.764,5.223c-0.023,1.461,0.205,3.066,0.016,4.512
	c-0.207,1.555-1.49,2.6-0.11,3.74c0.939,0.776,4.081,0.991,5.331,1.315c0.829,0.215,1.443,0.051,2.264,0.146
	c0.705,0.084,1.162,0.507,1.648,0.6c2.176,0.419,2.422-0.101,3.008-2.078c0.578-1.95,0.803-4.033,1.295-6.008
	c0.468-1.876,0.733-3.236,0.771-5.236c0.033-1.637,0.6-2.86,0.768-4.439c0.438-4.132,0.617-8.727,1.643-12.763
	c2.021-7.944,2.733-16.521,5.283-24.598c0.83-2.634,5.641-14.131,9.729-11.536c2.398,1.521,4.008,5.064,4.287,7.686
	c0.17,1.592,0.767,2.834,0.746,4.492c-0.027,2.058-0.277,4.399,0.168,6.404c0.361,1.613,0.348,3.257,0.75,4.826
	c0.398,1.559,1.006,3.059,1.352,4.658c0.193,0.894,0.361,1.922,0.561,2.807c0.236,1.033-0.084,2.066,0.125,3.054
	c0.172,0.802,0.655,1.367,0.829,2.169c0.265,1.213-0.143,2.521,0.128,3.764c0.281,1.291,0.623,1.941,0.6,3.428
	c-0.012,0.732-0.178,1.797-0.057,2.539c0.337,2.051,0.807,3.781,0.788,5.908c-0.051,5.54,0,11.082,0,16.623
	c0,6.478,0,12.955,0,19.432c0,3.308,0.233,6.6-0.581,9.716c-0.867,3.312-0.176,7.729-0.168,11.169
	c0.004,1.182,0.32,2.762,0.039,3.898c-0.293,1.182-0.73,1.825-0.805,3.084c-0.064,1.1,0.296,2.499,0.056,3.576
	c-0.294,1.324-0.659,2.184-0.788,3.58c-0.228,2.503-1.311,4.963-1.535,7.5c-0.211,2.407-0.434,4.686-0.668,7.057
	c-0.267,2.693-1.199,5.411-1.582,8.143c-0.297,2.123-0.246,4.6-0.854,6.66c-0.235,0.792-0.904,1.45-1.183,2.229
	c-0.443,1.241-0.604,2.531-1.105,3.778c-0.736,1.832-1.892,4.059-3.777,4.957c-0.914-1.191-0.846-2.915-1.25-4.266
	c-0.363-1.207-1.195-2.48-1.729-3.704c-1.353-3.108-2.17-6.497-2.949-9.732c-0.361-1.501-0.982-2.947-1.355-4.474
	c-0.407-1.674-0.361-3.555-0.685-5.221c-0.802-4.133-1.208-8.26-2.122-12.349c-0.438-1.954,0.088-3.878-0.127-5.823
	c-0.116-1.051-0.64-1.801-0.826-2.807c-0.176-0.947,0.074-2.08,0.035-3.051c-0.062-1.673-0.681-2.808-0.764-4.48
	c-0.106-2.208-0.057-4.012-0.564-6.129c-0.4-1.677-0.039-3.384-0.148-5.082c-0.133-2.081-0.683-4.033-0.746-6.185
	c-0.051-1.743-0.546-3.333-0.748-5.057c-0.088-0.739-0.493-1.128-0.603-1.646c-0.196-0.933,0.086-1.96-0.128-2.866
	c-0.161-0.681-0.662-0.742-0.825-1.42c-0.172-0.709,0.147-1.576,0.056-2.302c-0.09-0.708-0.5-1.152-0.6-1.647
	c-0.146-0.713-0.008-1.373-0.125-2.082c-0.254-1.515-1.006-3.017-1.373-4.488c-0.427-1.719-0.49-3.527-0.893-5.24
	c-0.363-1.538-1.178-2.955-1.541-4.493c-0.344-1.459-0.498-2.995-0.873-4.474c-0.443-1.743-1.487-3.612-2.284-5.241
	c-1.058-2.155-1.333-4.562-2.228-6.752c-0.763-1.866-1.609-3.774-2.435-5.614c-0.538-1.201-1.294-2.201-1.894-3.316
	c-0.84-1.561-1.234-3.248-2.074-4.835c-2.617-4.946-5.656-9.651-8.193-14.624c-2.425-4.751-4.146-9.808-6.988-14.363
	c-2.055-3.298-3.111-7.01-4.996-10.402c-1.393-2.508-2.465-4.926-3.763-7.486c-0.614-1.214-1.38-2.447-1.888-3.705
	c-0.355-0.659-0.529-1.365-0.523-2.118c-0.365-1.03-0.924-1.452-1.373-2.409c-1.053-2.248-1.851-5.101-2.576-7.49
	c-0.547-1.797-1.234-5.482-2.526-6.791c1.339,0.125,2.759,0.162,4.044-0.111c0.514-0.111,0.916-0.51,1.646-0.601
	s1.544,0.194,2.263,0.054c1.551-0.307,2.959-1.165,4.492-1.512c1.711-0.389,3.431-1.166,5.098-1.705
	c2.679-0.867,5.41-2.548,4.104-5.639c-1.286-3.043-5.314-5.744-8.418-6.174c-3.676-0.51-7.811-0.609-11.281-2.042
	c-2.446-1.011-4.809-1.774-7.302-2.597c-2.206-0.727-3.222-2.83-4.454-4.529c-1.559-2.148-3.719-3.814-5.256-5.954
	c-2.273-3.168-0.387-6.146,1.854-8.63c2.281-2.53,5.368-5.42,4.73-9.168c-0.518-3.046-4.035-5.506-6.756-6.17
	c-2.648-0.647-8.259-1.711-10.496,0.351c-2.108,1.942-2.998,3.747-2.998,6.568c0,3.062,1.332,4.483,2.788,6.945
	c1.374,2.325,2.317,4.12,1.536,7.112c-0.275,1.055-1.217,2.959-1.893,3.945c-0.314,0.459-0.855,0.814-1.139,1.256
	c-0.514,0.805-0.633,1.654-1.235,2.472c-2.245,3.044-5.758,3.238-9.039,4.288c-1.474,0.471-3.015,1.142-4.493,1.512
	c-0.83,0.207-1.408,0.115-2.246,0.148c-1.17,0.049-1.879,0.625-2.992,0.811c-2.674,0.444-5.396,0.807-7.691,2.768
	c-1.847,1.58-3.457,4.807-1.125,6.755c1.975,1.647,5.691,2.358,8.105,3.16c1.68,0.56,2.817,0.779,4.617,0.754
	c2.299-0.032,3.665,0.852,5.844,1.325c2.357,0.514,5.859,0.351,7.689,2.176c1.047,1.045,0.625,3.885,0.543,5.311
	c-0.143,2.498-0.987,5.15-1.351,7.721c-0.538,3.795-0.73,7.643-1.493,11.352c-0.221,1.069-0.012,1.943-0.126,2.992
	c-0.114,1.038-0.683,1.812-0.832,2.811c-0.339,2.256-0.746,4.611-0.706,6.925c0.08,4.772-1.389,9.497-1.516,14.262
	c-0.053,1.978,0.01,3.972,0.018,5.95c0.009,2.389-0.627,4.412-0.766,6.698c-0.068,1.116,0.178,2.28,0.057,3.391
	c-0.143,1.3-0.709,2.454-0.83,3.763c-0.12,1.289,0.129,2.459-0.125,3.764c-0.264,1.359-0.587,2.033-0.581,3.535
	c0.005,2.226-0.688,4.152-0.749,6.402c-0.023,0.804-0.021,1.382-0.168,2.17c-0.277,1.492-0.363,2.821-0.541,4.344
	c-0.643,5.523-2.191,10.958-3.222,16.471c-0.46,2.471-0.894,5.047-1.493,7.504c-0.705,2.883-1.467,6.006-1.896,9.002
	c-0.749,5.213-2.176,10.394-2.393,15.664c-0.064,1.641-0.673,3.09-0.808,4.716c-0.118,1.425,0.174,2.878,0.077,4.307
	c-0.09,1.339-0.574,2.479-0.787,3.792c-0.412,2.531-0.416,5.121-0.727,7.636c-0.182,1.464-0.69,2.845-0.809,4.312
	c-0.089,1.099,0.205,2.233,0.078,3.328c-0.236,2.004-0.824,3.658-0.79,5.724c0.038,2.555-0.405,4.758-0.931,7.233
	c-0.209,0.977-0.497,1.567-0.582,2.535c-0.115,1.299,0.184,2.529-0.15,3.805c-0.23,0.883-0.553,1.262-0.598,2.229
	c-0.035,0.697,0.219,1.609,0.055,2.283c-0.164,0.679-0.672,0.74-0.828,1.418c-0.151,0.654,0.003,1.442-0.127,2.121
	c-0.133,0.699-0.686,2.526-1.482,3.007c-1.237,0.749-4.848-0.8-5.893-1.489c-1.013-0.67-2.321-2.395-2.775-3.562
	c-0.701-1.815-1.318-3.49-2.219-5.272c-1.91-3.781-2.412-7.941-3.018-12.065c-0.318-2.171,0.174-4.507-0.334-6.648
	c-0.465-1.979-0.58-3.672-0.582-5.79c-0.002-4.842-0.662-10.229,0.168-14.991c0.827-4.747,2-9.462,3.012-14.223
	c1.051-4.949,1.259-9.98,2.248-14.993c2.043-10.346,3.26-20.639,5.223-30.99c0.621-3.268,1.762-6.396,2.617-9.6
	c0.386-1.44,1.225-2.705,1.578-4.141c0.281-1.133,0.141-2.341,0.291-3.492c0.312-2.394,0.695-4.752,1.166-7.096
	c0.274-1.35-0.141-2.755,0.127-4.048c0.291-1.415,0.775-2.382,0.81-3.891c0.034-1.487,0.175-2.12,0.562-3.458
	c0.444-1.525,0.013-3.068,0.15-4.609c0.111-1.252,0.668-2.278,0.805-3.539c0.154-1.438-0.039-3.049-0.039-4.494
	c0-2.934,0-5.865,0-8.797c0-1.365-0.006-2.73,0-4.095c0.006-1.53-0.186-2.626-0.544-3.829c-0.73-2.465-1.503-4.379-2.453-6.61
	c-0.832-1.954-2.019-3.469-3.178-5.26c-1.937-2.997-4.19-5.503-6.737-8.071c-2.996-3.023-6.914-5.258-10.462-7.486
	c-1.958-1.23-4.097-1.789-5.989-2.995c-0.857-0.546-1.859-1.188-2.827-1.519c-1.771-0.604-2.69-1.434-4.325-2.448
	c-1.889-1.173-3.729-2.342-5.574-3.517c-0.966-0.615-1.838-0.637-2.828-1.082c-1.336-0.601-2.263-1.461-3.742-1.914
	c-1.012-0.309-2.012-0.561-2.996-0.936c-1.371-0.522-2.438-0.43-3.787-0.71c-2.041-0.424-5.817-3.145-8.117-2.188
	c-0.242,1.165-0.073,2.447-0.073,3.648c-0.001,0.716-0.11,1.556-0.019,2.262c0.095,0.707,0.496,1.149,0.602,1.646
	c0.154,0.736,0.055,1.356,0.145,2.1c0.09,0.719,0.498,1.143,0.604,1.645c0.291,1.412,0.721,2.899,0.955,4.322
	c0.226,1.346,0.195,1.77,0.729,2.976c0.48,1.083,0.529,2.404,0.895,3.601c0.854,2.79,2.686,5.305,2.842,8.398
	c0.156,3.025-1.955,4.125-3.213,6.574c-1.131,2.203-2.439,4.549-3.705,6.719c-0.621,1.065-1.543,2.04-2.078,3.139
	c-0.678,1.391-1.008,2.772-2.062,3.984c-1.554,1.789-3.185,4.259-3.929,6.535"/>
<path fill="#FFFFFF" d="M100.887,177.984c0.031,3.594-1.942,6.575-3.199,9.897c-0.703,1.859-0.703,3.951-1.129,5.862
	c-0.428,1.94-0.805,3.833-1.455,5.767c-2.111,6.297-4.049,12.172-7.148,17.984c-1.648,3.094-3.102,6.559-4.533,9.812
	c-0.611,1.393-1.195,3.076-1.834,4.596c-0.826,1.963-1.742,3.783-2.574,5.783c-1.512,3.63-3.621,7.014-5.074,10.687
	c-0.637,1.61-1.519,2.975-2.248,4.438c-0.89,1.782-1.409,3.684-2.414,5.401c-4.683,8.021-7.174,17.035-11.623,25.162
	c-2.928,5.345-6.229,10.623-9.359,15.866c-3.225,5.404-6.791,10.744-9.749,16.325c-1.222,2.304-2.964,4.61-4.284,6.904
	c-1.443,2.509-2.732,5.151-4.328,7.67c-0.385,0.609-0.164,1.026-0.838,1.497c0.074,1.318,6.664,3.148,7.992,3.39
	c1.607,0.293,3.202,0.042,4.807,0.336c2.512,0.462,4.734,0.49,7.316,0.565c3.526,0.102,7.014,1.403,10.541,1.531
	c1.754,0.064,2.939,0.173,4.619,0.565c1.867,0.436,3.812-0.062,5.654,0.332c0.517,0.111,0.92,0.509,1.648,0.6
	c0.723,0.091,1.553-0.204,2.264-0.056c1.66,0.349,2.748,0.686,4.492,0.77c1.612,0.078,2.818,0.785,4.49,0.764
	c1.684-0.021,3.594-0.236,5.259-0.014c1.63,0.217,2.453,0.777,4.312,0.763c1.808-0.015,3.614-0.001,5.42,0.003
	c1.261,0.002,3.244,0.538,3.779-0.695c0.507-1.166-0.054-3.979-0.054-5.294c0-3.7,0-7.401,0-11.103c0-1.728-0.001-3.455,0-5.184
	c0.002-0.99-0.075-2.021-0.017-3.01c0.076-1.298,0.574-2.074,0.805-3.33c0.387-2.109-0.029-4.889-0.039-7.008
	c-0.008-2.115,0.426-3.577,0.787-5.55c0.32-1.741-0.115-3.899-0.055-5.658c0.081-2.409,0.799-4.546,0.766-7.105
	c-0.025-1.886,0.588-3.22,0.787-5.04c0.162-1.495-0.038-3.147-0.038-4.657c0-1.429,0.179-2.962-0.171-4.325
	c-0.377-1.473-1.785-2.769-2.636-4.074c-0.909-1.393-1.187-1.896-2.601-2.625c-1.193-0.614-2.088-1.314-3.014-2.266
	c-0.879-0.903-1.973-1.54-2.83-2.412c-0.546-0.555-0.898-1.154-1.436-1.684c-0.809-0.797-2.16-1.478-2.523-2.679
	c-0.133-0.117-0.266-0.234-0.396-0.352c0.387-1.269,2.859-2.63,0.687-4.159c-1.476-1.039-3.97-0.715-5.476-1.446
	c-1.312-0.636-1.103-0.14-1.331-1.664c-0.141-0.948,0.03-2.046,0.018-3.01c-0.021-1.637,0.397-4.64,1.665-5.857
	c1.008-0.97,3.725-1.21,5.07-0.918c1.988,0.429,3.934,1.528,5.986,1.567c2.82,0.055,4.074-4.148,5.443-6.227
	c1.91-2.896,2.402-6.391,4.291-9.526"/>
<path fill="#405DA2" d="M183.986,341.935c-1.4-0.785,1.053-5.432,1.664-6.721c1.307-2.762,2.889-5.419,3.555-8.252
	c0.315-1.34,1.51-2.264,0.073-3.03c-0.296-0.157-1.861-0.392-2.298-0.529c-0.694-0.219-1.568-0.606-2.246-0.766
	c-2.844-0.669-5.342-1.673-8.125-2.341c-0.158,1.9-0.998,3.309-1.443,5.169c-0.495,2.074-0.911,4.057-1.828,5.972
	c-1.69,3.538-2.6,7.045-4.324,10.498"/>
<path fill="#405DA2" d="M46.985,142.798c1.88,0,4.15,0.361,5.989,0.039c2.258-0.397,4.479-1.212,6.738-1.578
	c1.111-0.18,1.9-0.248,2.994-0.54c1.078-0.287,2.92-0.608,3.63,0.528c0.437,0.698,0.134,2.258,0.116,3.048
	c-0.035,1.511,0.537,2.333,0.784,3.744c0.29,1.645,0.241,4.363-0.772,5.254c-1.864,1.644-4.695,1.228-6.957,1.649
	c-1.308,0.244-2.188,0.566-3.535,0.58c-0.507,0.012-1.014,0.006-1.518-0.016c-0.713,0.096-1.143,0.492-1.646,0.601
	c-0.965,0.207-1.867,0.024-2.846,0.149c-0.994,0.126-1.986,1.048-2.978,0.766"/>
<path fill="#405DA2" d="M64.203,66.437c-2.731,5.47-5.334,11.385-7.486,17.219c-0.569,1.539-1.514,2.949-2.078,4.492
	c-0.275,0.759-0.423,1.506-0.729,2.264c-0.225,0.555-0.928,1.671-0.99,2.207c-0.22,1.814,3.123,4.465,4.528,5.447
	c0.997,0.697,2.458,1.852,3.8,1.363c1.34-0.488,1.701-2.477,2.374-3.611c1.577-2.652,3.023-5.448,4.53-8.25
	c2.268-4.213,5.859-7.776,8.031-12.146"/>
<path fill="#405DA2" d="M106.129,132.317c1.563,2.051,5.129,2.416,7.484,3.178c2.82,0.912,6.354,1.767,9.316,2.041
	c0.963-0.009,1.875,0.192,2.74,0.604c0.629,0.082,1.574-0.017,2.168,0.125c0.814,0.194,1.432,0.643,2.247,0.832
	c0.764,0.178,1.457-0.182,2.26,0.093c2.265,0.773,1.771,5.954,1.519,8.06c-0.504,4.213-3.383,3.783-6.773,3.783
	c-2.613,0-5.538,0.338-8.068-0.166c-0.673-0.134-1.906-1.031-2.578-1.164c-1.413-0.28-2.913,0.12-4.326-0.128
	c-0.549-0.087-1.049-0.293-1.498-0.621c-0.791-0.2-1.535,0.047-2.283-0.124c-0.683-0.156-0.736-0.678-1.417-0.832
	c-0.733-0.166-1.401,0.136-2.161-0.087c-0.042-0.206-0.084-0.413-0.126-0.62"/>
<path fill="#405DA2" d="M194.467,207.929c-1.648-0.453-2.117,1.331-3.125,2.062c-1.788,1.297-3.944,2.592-5.858,3.761
	c-1.458,0.89-3.053,1.493-4.493,2.412c-1.721,1.099-3.562,2.367-5.406,3.202c-2.811,1.274-6.74,2.74-8.834,5.183
	c-1.91,2.228,1.047,5.013,1.556,7.296c0.146,0.656,0.003,1.441,0.126,2.12c-0.068-0.369,0.926,2.144,0.545,1.696
	c1.102,1.29,2.434,0.17,3.926-0.556c1.512-0.736,2.706-1.833,4.165-2.657c1.409-0.793,3.1-1.395,4.489-2.227
	c2.366-1.418,4.731-2.854,7.09-4.12c1.211-0.651,1.936-1.511,2.993-2.284c0.368-0.271,1.124-0.468,1.536-0.707
	c0.742-0.431,0.852-1.024,1.895-1.103c0.048-0.201,0.098-0.402,0.146-0.603"/>
<path fill="#405DA2" d="M87.413,252.099c1.325,0.604,2.294,0.539,3.573,0.916c0.685,0.2,1.623,0.898,2.418,1.144
	c2.209,0.681,4.586,1.013,6.732,1.663c2.016,0.609,3.965,1.048,5.992,1.702c1.144,0.369,1.844,0.337,2.994,0.522
	c1.338,0.217,2.181,1.238,3.633,0.694c0.477-1.277,0.584-3.011,0.857-4.337c0.322-1.551,0.996-3.691,0.762-5.316
	c-0.314-2.182-1.186-1.654-3.045-2.207c-1.448-0.43-2.855-1.152-4.453-1.54c-1.391-0.337-2.623-0.772-3.91-1.29
	c-1.535-0.615-2.864-0.553-4.363-0.894c-0.685-0.155-0.736-0.676-1.42-0.831c-0.745-0.17-1.497,0.069-2.285-0.125
	c-1.166-0.287-3.357-1.655-4.492-1.33"/>
<path fill="#405DA2" d="M116.608,197.448c-0.114,1.218,0.843,2.127,1.272,3.087c0.832,1.856,1.56,3.767,2.264,5.669
	c0.734,1.984,1.383,4.143,2.246,6.064c0.623,1.389,1.584,2.515,2.266,3.896c1.268,2.572,2.621,4.921,3.723,7.485
	c0.717,1.671,2.52,4.095,2.584,5.896c2.943-0.189,6.031-3.989,8.252-5.71c1.457-1.127,2.765-1.1,2.883-3.161
	c0.084-1.489-0.787-3.292-1.535-4.507c-2.002-3.256-3.932-6.81-5.986-10.134c-1.076-1.738-2.234-3.566-3.201-5.424
	c-0.816-1.575-1.441-4.117-2.788-5.407"/>
<path fill="#405DA2" d="M103.883,339.688c0-2.494,0-4.99,0-7.486c0-1.23,0.087-2.498,0.017-3.725
	c-0.104-1.816-0.734-3.411-0.764-5.256c-0.044-2.744,0.007-5.492-0.002-8.237c-0.002-0.733-0.423-3.095,0.112-3.631
	c0.603-0.602,3.533-0.113,4.379-0.113c1.018,0,2.846-0.376,3.779-0.07c1.427,0.467,1.252,2.558,1.645,3.832
	c0.482,1.56,0.24,2.718,0.527,4.308c0.35,1.951,0.795,3.271,0.786,5.369c-0.007,1.709-0.274,3.619,0.167,5.272
	c0.43,1.61,0.584,2.763,0.582,4.497c-0.002,2.777,0.715,4.711,0.748,7.486"/>
<path fill="#405DA2" d="M231.898,140.553c-1.79-1.185-3.945,0.418-5.551,0.77c-0.963,0.21-2.083,0.331-2.885,0.561
	c-0.918,0.263-1.824,0.173-2.793,0.167c-0.93-0.008-4.494-0.548-5.125,0.113c-1.029,1.078,0.984,4.327,1.217,5.293
	c0.172,0.715,0.148,1.354,0.328,2.082c0.329,0.448,0.537,0.945,0.625,1.492c-0.019,0.52-0.051,1.037-0.096,1.554
	c0.56,1.343,3.895,0.694,5.297,0.694c3.342,0,7.923,0.805,11.102-0.127c0.041-0.207,0.084-0.414,0.127-0.621"/>
<path fill="#405DA2" d="M213.932,249.853c1.743,1.695,4.518,2.638,6.57,3.929c1.834,1.153,3.569,2.546,5.387,3.743
	c1.139,0.751,1.938,0.84,3.035,1.291c0.661,0.271,1.781,1.289,2.41,1.363c1.65,0.198,1.347-0.549,1.311-2.094
	c-0.028-1.209-0.078-2.418,0.17-3.574c0.365-0.177,0.57-0.469,0.619-0.875c0.154-0.637-0.033-1.625-0.038-2.285
	c-0.009-1.24,0.081-2.505,0.015-3.741c-0.123-2.351-2.712-3.72-4.547-5.077c-1.923-1.42-3.184-3.259-5.221-4.47
	c-1.227-0.729-4.943-2.598-5.22-3.931"/>
<path fill="#405DA2" d="M147.304,88.147c-1.159-0.32-2.81,0.999-3.705,1.646c-1.845,1.334-3.458,3.016-5.28,4.361
	c-1.705,1.256-3.488,1.396-3.773,3.67c-0.312,2.482,1.926,5.391,2.881,7.58c0.533,1.221,0.449,3.592,1.795,4.318
	c1.512,0.818,3.881-1.51,5.066-2.297c2.816-1.871,6-3.559,9.004-5.055"/>
<path fill="#405DA2" d="M103.134,52.962c1.006,0.806,1.093,2.607,1.646,3.688c0.898,1.762,1.779,3.521,2.66,5.296
	c0.984,1.984,0.938,3.087,3.184,2.444c1.748-0.498,3.611-0.98,5.276-1.695c1.448-0.623,1.995-0.691,2.221-2.231
	c0.259-1.743-0.097-3.026-0.763-4.468c-1.343-2.905-0.928-6.294-2.246-9.021"/>
</svg>
